<?xml version="1.0" encoding="UTF-8"?>
<svg version="1.1" xmlns="http://www.w3.org/2000/svg" width="1024" height="1024">
<path d="M0 0 C1.29421875 0.25265625 2.5884375 0.5053125 3.921875 0.765625 C7.03276858 1.68574845 8.43307455 2.11952584 10.25 4.75 C10.25 5.41 10.25 6.07 10.25 6.75 C10.91 6.75 11.57 6.75 12.25 6.75 C13.91666667 8.41666667 15.58333333 10.08333333 17.25 11.75 C18.343125 12.471875 19.43625 13.19375 20.5625 13.9375 C21.449375 14.535625 22.33625 15.13375 23.25 15.75 C23.25 16.41 23.25 17.07 23.25 17.75 C23.91 17.75 24.57 17.75 25.25 17.75 C26.875 19.125 26.875 19.125 28.25 20.75 C28.25 21.41 28.25 22.07 28.25 22.75 C28.91 22.75 29.57 22.75 30.25 22.75 C30.683125 23.36875 31.11625 23.9875 31.5625 24.625 C33.09397743 26.91720438 33.09397743 26.91720438 35.625 27.6875 C39.00816748 29.05687731 40.86548577 31.02484089 43.25 33.75 C43.25 34.41 43.25 35.07 43.25 35.75 C43.91 35.75 44.57 35.75 45.25 35.75 C46.875 37.125 46.875 37.125 48.25 38.75 C48.25 39.41 48.25 40.07 48.25 40.75 C48.91 40.75 49.57 40.75 50.25 40.75 C51.27104551 41.72850195 52.2706121 42.72980427 53.25 43.75 C53.91 44.08 54.57 44.41 55.25 44.75 C55.25 45.41 55.25 46.07 55.25 46.75 C56.57 47.08 57.89 47.41 59.25 47.75 C59.25 48.41 59.25 49.07 59.25 49.75 C59.91 49.75 60.57 49.75 61.25 49.75 C62.875 51.125 62.875 51.125 64.25 52.75 C64.25 53.41 64.25 54.07 64.25 54.75 C64.91 54.75 65.57 54.75 66.25 54.75 C66.25 55.41 66.25 56.07 66.25 56.75 C66.91 56.75 67.57 56.75 68.25 56.75 C69.875 58.125 69.875 58.125 71.25 59.75 C71.25 60.41 71.25 61.07 71.25 61.75 C72.735 61.255 72.735 61.255 74.25 60.75 C75.95884005 62.37339805 77.62446717 64.04319053 79.25 65.75 C79.25 66.41 79.25 67.07 79.25 67.75 C79.91 67.75 80.57 67.75 81.25 67.75 C82.875 69.125 82.875 69.125 84.25 70.75 C84.25 71.41 84.25 72.07 84.25 72.75 C84.91 72.75 85.57 72.75 86.25 72.75 C87.91666667 74.41666667 89.58333333 76.08333333 91.25 77.75 C92.8896875 78.8328125 92.8896875 78.8328125 94.5625 79.9375 C95.449375 80.535625 96.33625 81.13375 97.25 81.75 C97.25 82.41 97.25 83.07 97.25 83.75 C97.91 83.75 98.57 83.75 99.25 83.75 C100.875 85.125 100.875 85.125 102.25 86.75 C102.25 87.41 102.25 88.07 102.25 88.75 C102.91 88.75 103.57 88.75 104.25 88.75 C105.875 90.125 105.875 90.125 107.25 91.75 C107.25 92.41 107.25 93.07 107.25 93.75 C107.91 93.75 108.57 93.75 109.25 93.75 C109.25 94.41 109.25 95.07 109.25 95.75 C112.88 96.08 116.51 96.41 120.25 96.75 C120.25 97.41 120.25 98.07 120.25 98.75 C121.136875 98.976875 122.02375 99.20375 122.9375 99.4375 C126.7141247 100.93389846 128.63617976 102.67491737 131.25 105.75 C131.25 106.41 131.25 107.07 131.25 107.75 C131.91 107.75 132.57 107.75 133.25 107.75 C134.875 109.125 134.875 109.125 136.25 110.75 C136.25 111.41 136.25 112.07 136.25 112.75 C136.91 112.75 137.57 112.75 138.25 112.75 C140.875 115.125 140.875 115.125 143.25 117.75 C143.25 118.41 143.25 119.07 143.25 119.75 C143.91 119.75 144.57 119.75 145.25 119.75 C146.875 121.125 146.875 121.125 148.25 122.75 C148.25 123.41 148.25 124.07 148.25 124.75 C148.91 124.75 149.57 124.75 150.25 124.75 C151.875 126.125 151.875 126.125 153.25 127.75 C153.25 128.41 153.25 129.07 153.25 129.75 C153.91 129.75 154.57 129.75 155.25 129.75 C155.25 130.41 155.25 131.07 155.25 131.75 C156.24 132.08 157.23 132.41 158.25 132.75 C158.25 133.41 158.25 134.07 158.25 134.75 C158.91 134.75 159.57 134.75 160.25 134.75 C160.25 135.41 160.25 136.07 160.25 136.75 C160.91 136.75 161.57 136.75 162.25 136.75 C163.875 138.125 163.875 138.125 165.25 139.75 C165.25 140.41 165.25 141.07 165.25 141.75 C165.91 141.75 166.57 141.75 167.25 141.75 C168.875 143.125 168.875 143.125 170.25 144.75 C170.25 145.41 170.25 146.07 170.25 146.75 C171.013125 146.853125 171.77625 146.95625 172.5625 147.0625 C175.43416484 147.79711194 176.48042094 148.4216065 178.25 150.75 C178.25 151.41 178.25 152.07 178.25 152.75 C178.91 152.75 179.57 152.75 180.25 152.75 C180.25 153.41 180.25 154.07 180.25 154.75 C182.23 155.41 184.21 156.07 186.25 156.75 C186.25 157.41 186.25 158.07 186.25 158.75 C187.24 159.08 188.23 159.41 189.25 159.75 C189.25 160.41 189.25 161.07 189.25 161.75 C189.91 161.75 190.57 161.75 191.25 161.75 C191.25 162.41 191.25 163.07 191.25 163.75 C192.24 164.08 193.23 164.41 194.25 164.75 C194.25 165.41 194.25 166.07 194.25 166.75 C194.91 166.75 195.57 166.75 196.25 166.75 C196.25 167.41 196.25 168.07 196.25 168.75 C197.24 169.08 198.23 169.41 199.25 169.75 C199.25 170.41 199.25 171.07 199.25 171.75 C199.91 171.75 200.57 171.75 201.25 171.75 C201.58 173.4 201.91 175.05 202.25 176.75 C202.91 176.75 203.57 176.75 204.25 176.75 C204.25 177.41 204.25 178.07 204.25 178.75 C205.24 179.08 206.23 179.41 207.25 179.75 C207.25 180.41 207.25 181.07 207.25 181.75 C207.91 181.75 208.57 181.75 209.25 181.75 C209.25 182.41 209.25 183.07 209.25 183.75 C210.24 184.08 211.23 184.41 212.25 184.75 C212.25 185.41 212.25 186.07 212.25 186.75 C212.91 186.75 213.57 186.75 214.25 186.75 C214.25 187.41 214.25 188.07 214.25 188.75 C214.91 188.75 215.57 188.75 216.25 188.75 C217.875 190.125 217.875 190.125 219.25 191.75 C219.25 192.41 219.25 193.07 219.25 193.75 C219.91 193.75 220.57 193.75 221.25 193.75 C221.25 194.41 221.25 195.07 221.25 195.75 C222.24 196.08 223.23 196.41 224.25 196.75 C224.25 197.41 224.25 198.07 224.25 198.75 C224.91 198.75 225.57 198.75 226.25 198.75 C226.25 199.41 226.25 200.07 226.25 200.75 C226.91 200.75 227.57 200.75 228.25 200.75 C231.08934661 202.99781607 231.94605934 205.44668365 233.25 208.75 C233.91 209.08 234.57 209.41 235.25 209.75 C235.25 210.41 235.25 211.07 235.25 211.75 C235.91 211.75 236.57 211.75 237.25 211.75 C239.875 214.125 239.875 214.125 242.25 216.75 C242.25 217.41 242.25 218.07 242.25 218.75 C242.91 218.75 243.57 218.75 244.25 218.75 C248.20896351 222.11511899 249.95022739 224.75087457 251.25 229.75 C251.8378125 231.60625 251.8378125 231.60625 252.4375 233.5 C253.25 236.75 253.25 236.75 252.25 238.75 C252.91 238.75 253.57 238.75 254.25 238.75 C254.25 239.41 254.25 240.07 254.25 240.75 C254.91 240.75 255.57 240.75 256.25 240.75 C257.875 242.125 257.875 242.125 259.25 243.75 C259.25 244.41 259.25 245.07 259.25 245.75 C259.91 245.75 260.57 245.75 261.25 245.75 C262.65234375 247.10546875 262.65234375 247.10546875 264.1875 248.9375 C264.94353516 249.82501953 264.94353516 249.82501953 265.71484375 250.73046875 C267.25 252.75 267.25 252.75 268.65625 255.20703125 C270.95950656 258.88208032 274.03626781 261.52602646 277.19140625 264.46875 C279.31767618 266.824996 280.27439063 268.75461557 281.25 271.75 C281.91 271.75 282.57 271.75 283.25 271.75 C284.80078125 273.359375 284.80078125 273.359375 286.5625 275.5 C288.59986325 277.91277801 290.35217165 279.82784506 292.875 281.75 C295.1813887 283.69222206 296.18691176 285.12935433 297.6875 287.6875 C299.61299035 290.94463788 301.59771524 293.07577587 304.62890625 295.40625 C306.61461168 297.05223234 308.32433415 298.84477118 310.0625 300.75 C310.64644531 301.389375 311.23039063 302.02875 311.83203125 302.6875 C313.45367261 305.04625107 313.87375134 306.93546457 314.25 309.75 C315.24 309.75 316.23 309.75 317.25 309.75 C317.91 311.4 318.57 313.05 319.25 314.75 C319.91 314.75 320.57 314.75 321.25 314.75 C321.25 315.41 321.25 316.07 321.25 316.75 C322.2090625 317.1521875 322.2090625 317.1521875 323.1875 317.5625 C325.25 318.75 325.25 318.75 326.25 321.75 C326.91 321.75 327.57 321.75 328.25 321.75 C331.25 325.21153846 331.25 325.21153846 331.25 327.75 C331.91 327.75 332.57 327.75 333.25 327.75 C334.8359375 329.359375 334.8359375 329.359375 336.625 331.5 C338.58757727 333.81903702 340.5088295 336.00219284 342.6875 338.125 C344.25 339.75 344.25 339.75 344.25 341.75 C344.91 341.75 345.57 341.75 346.25 341.75 C346.25 343.07 346.25 344.39 346.25 345.75 C346.91 345.75 347.57 345.75 348.25 345.75 C348.25 346.41 348.25 347.07 348.25 347.75 C348.91 347.75 349.57 347.75 350.25 347.75 C350.25 348.41 350.25 349.07 350.25 349.75 C351.24 350.08 352.23 350.41 353.25 350.75 C353.25 351.41 353.25 352.07 353.25 352.75 C353.91 352.75 354.57 352.75 355.25 352.75 C355.25 353.41 355.25 354.07 355.25 354.75 C355.91 354.75 356.57 354.75 357.25 354.75 C360.25257069 372.5777635 360.25257069 372.5777635 358.125 377.1875 C357.196875 378.4559375 357.196875 378.4559375 356.25 379.75 C355.80140625 380.36875 355.3528125 380.9875 354.890625 381.625 C349.38922455 389.11144184 343.82068918 396.48910877 335.6875 401.25 C333.40002963 402.65767408 331.91238119 404.02059413 330.0625 405.9375 C329.134375 406.865625 328.20625 407.79375 327.25 408.75 C326.59 408.75 325.93 408.75 325.25 408.75 C324.9921875 409.34554688 324.734375 409.94109375 324.46875 410.5546875 C323.14188606 412.9447437 321.85890657 414.15503112 319.75 415.875 C316.47002309 418.63584388 313.4733375 421.53656557 310.5 424.625 C307.07139544 428.10571101 303.60647618 431.04804401 299.625 433.875 C295.80239559 436.60895032 292.52970348 439.40034878 289.28125 442.80078125 C288.59240723 443.52185059 287.90356445 444.24291992 287.19384766 444.98583984 C285.84610574 446.42010189 284.51648146 447.87167639 283.20849609 449.34228516 C278.40717453 454.45885123 274.27434189 456.30993176 267.25 456.75 C264.13306 456.47170179 262.02090381 456.1354519 259.25 454.75 C259.25 454.09 259.25 453.43 259.25 452.75 C258.486875 452.646875 257.72375 452.54375 256.9375 452.4375 C254.06583516 451.70288806 253.01957906 451.0783935 251.25 448.75 C251.25 448.09 251.25 447.43 251.25 446.75 C250.2909375 446.3478125 250.2909375 446.3478125 249.3125 445.9375 C247.25 444.75 247.25 444.75 246.25 441.75 C245.59 441.75 244.93 441.75 244.25 441.75 C244.25 441.09 244.25 440.43 244.25 439.75 C243.26 439.42 242.27 439.09 241.25 438.75 C236.25 433.28488372 236.25 433.28488372 236.25 430.75 C234.93 430.42 233.61 430.09 232.25 429.75 C232.25 429.09 232.25 428.43 232.25 427.75 C231.693125 427.688125 231.13625 427.62625 230.5625 427.5625 C227.30522474 426.41805194 225.6000902 424.22377916 223.25 421.75 C222.59 421.42 221.93 421.09 221.25 420.75 C221.25 420.09 221.25 419.43 221.25 418.75 C220.26 418.42 219.27 418.09 218.25 417.75 C218.25 417.09 218.25 416.43 218.25 415.75 C217.59 415.75 216.93 415.75 216.25 415.75 C216.25 415.09 216.25 414.43 216.25 413.75 C215.26 413.42 214.27 413.09 213.25 412.75 C213.25 412.09 213.25 411.43 213.25 410.75 C212.59 410.75 211.93 410.75 211.25 410.75 C211.25 410.09 211.25 409.43 211.25 408.75 C210.26 408.75 209.27 408.75 208.25 408.75 C206.5625 407.375 206.5625 407.375 205.25 405.75 C205.25 405.09 205.25 404.43 205.25 403.75 C204.59 403.75 203.93 403.75 203.25 403.75 C203.25 403.09 203.25 402.43 203.25 401.75 C202.26 401.42 201.27 401.09 200.25 400.75 C200.25 400.09 200.25 399.43 200.25 398.75 C199.693125 398.688125 199.13625 398.62625 198.5625 398.5625 C195.25931958 397.4019231 193.53105267 395.34786554 191.25 392.75 C191.25 392.09 191.25 391.43 191.25 390.75 C190.59 390.75 189.93 390.75 189.25 390.75 C187.625 389.375 187.625 389.375 186.25 387.75 C186.25 387.09 186.25 386.43 186.25 385.75 C185.59 385.75 184.93 385.75 184.25 385.75 C184.25 385.09 184.25 384.43 184.25 383.75 C183.26 383.42 182.27 383.09 181.25 382.75 C181.25 382.09 181.25 381.43 181.25 380.75 C180.3528125 380.3478125 180.3528125 380.3478125 179.4375 379.9375 C177.25152146 378.75082594 175.83667406 377.65400887 174.25 375.75 C174.25 375.09 174.25 374.43 174.25 373.75 C173.59 373.75 172.93 373.75 172.25 373.75 C172.25 373.09 172.25 372.43 172.25 371.75 C171.26 371.42 170.27 371.09 169.25 370.75 C169.25 370.09 169.25 369.43 169.25 368.75 C168.59 368.75 167.93 368.75 167.25 368.75 C167.25 368.09 167.25 367.43 167.25 366.75 C166.59 366.75 165.93 366.75 165.25 366.75 C163.625 365.375 163.625 365.375 162.25 363.75 C162.25 363.09 162.25 362.43 162.25 361.75 C161.59 361.75 160.93 361.75 160.25 361.75 C158.54006566 360.1277546 156.87652316 358.45586575 155.25 356.75 C154.3528125 355.9146875 154.3528125 355.9146875 153.4375 355.0625 C152.25 353.75 152.25 353.75 152.25 351.75 C151.26 351.42 150.27 351.09 149.25 350.75 C148.92 349.1 148.59 347.45 148.25 345.75 C147.59 345.75 146.93 345.75 146.25 345.75 C146.25 345.09 146.25 344.43 146.25 343.75 C145.59 343.75 144.93 343.75 144.25 343.75 C142.625 342.375 142.625 342.375 141.25 340.75 C141.25 340.09 141.25 339.43 141.25 338.75 C140.59 338.75 139.93 338.75 139.25 338.75 C139.25 338.09 139.25 337.43 139.25 336.75 C138.26 336.42 137.27 336.09 136.25 335.75 C136.25 335.09 136.25 334.43 136.25 333.75 C135.59 333.75 134.93 333.75 134.25 333.75 C134.25 333.09 134.25 332.43 134.25 331.75 C133.59 331.75 132.93 331.75 132.25 331.75 C130.625 330.375 130.625 330.375 129.25 328.75 C129.25 328.09 129.25 327.43 129.25 326.75 C128.59 326.75 127.93 326.75 127.25 326.75 C126.92 326.09 126.59 325.43 126.25 324.75 C123.92293551 323.6053512 123.92293551 323.6053512 121.125 322.625 C120.19429687 322.27179688 119.26359375 321.91859375 118.3046875 321.5546875 C108.29617613 318.91817427 96.47609356 322.51068622 87.6875 327.5625 C82.87244269 330.91998725 78.76849567 334.92938425 74.6875 339.125 C74.07898193 339.73706299 73.47046387 340.34912598 72.84350586 340.97973633 C69.05940981 345.05776358 67.5211054 348.27639489 66.60766602 353.75585938 C65.94168136 357.46900795 64.07336888 360.29320111 61.25 362.75 C58.375 363 58.375 363 55.25 362.75 C51.06707319 364.26450798 47.70850519 365.98319584 44.25 368.75 C43.53714844 369.11609375 42.82429687 369.4821875 42.08984375 369.859375 C38.08511024 372.52552496 35.15537427 375.9487264 31.9375 379.5 C24.64676266 387.40713065 16.98439987 394.78155545 9.05810547 402.04394531 C6.55861865 404.40235928 4.18053411 406.87276528 1.81274414 409.36279297 C0.25 410.75 0.25 410.75 -2.75 411.75 C-3.08 412.74 -3.41 413.73 -3.75 414.75 C-5.07138898 415.44003869 -6.40712621 416.10276572 -7.75 416.75 C-10.98892566 419.56660399 -13.97153408 422.64720414 -17 425.6875 C-17.84046875 426.51185547 -18.6809375 427.33621094 -19.546875 428.18554688 C-20.3409375 428.97896484 -21.135 429.77238281 -21.953125 430.58984375 C-22.68176758 431.31550537 -23.41041016 432.04116699 -24.16113281 432.78881836 C-26.06474796 434.71783007 -26.06474796 434.71783007 -25.75 437.75 C-27.06933594 439.14135742 -27.06933594 439.14135742 -28.984375 440.66796875 C-32.7293635 443.80501528 -36.21467585 447.1350353 -39.640625 450.61328125 C-40.15669312 451.13509979 -40.67276123 451.65691833 -41.20446777 452.19454956 C-43.35192984 454.3686874 -45.49495221 456.54711277 -47.63378906 458.72973633 C-49.21501098 460.34114694 -50.80239031 461.94628644 -52.390625 463.55078125 C-52.86985413 464.04347 -53.34908325 464.53615875 -53.84283447 465.04377747 C-56.32159286 467.54096805 -58.53055126 469.3360293 -61.75 470.75 C-63.9330555 472.58129433 -63.9330555 472.58129433 -66 474.6875 C-66.70640625 475.37714844 -67.4128125 476.06679688 -68.140625 476.77734375 C-70.06607549 478.71311074 -70.06607549 478.71311074 -69.75 481.75 C-71.21875 483.29296875 -71.21875 483.29296875 -73.25 484.9375 C-79.64258429 490.30411398 -85.33366836 496.17794514 -90.78125 502.4921875 C-96.64650218 509.21860765 -102.68490646 515.75687379 -109.0625 522 C-112.58119368 525.4574506 -115.57882113 528.94560038 -118.30078125 533.05859375 C-119.75 534.75 -119.75 534.75 -122.07055664 536.10229492 C-124.7944734 537.77734861 -126.81000468 539.55157321 -129.0703125 541.8046875 C-130.24400391 542.97451172 -130.24400391 542.97451172 -131.44140625 544.16796875 C-132.24449219 544.97878906 -133.04757812 545.78960938 -133.875 546.625 C-134.68582031 547.42808594 -135.49664062 548.23117187 -136.33203125 549.05859375 C-137.11191406 549.84105469 -137.89179688 550.62351562 -138.6953125 551.4296875 C-139.40187988 552.13851074 -140.10844727 552.84733398 -140.83642578 553.57763672 C-142.82429091 555.83433791 -144.25269216 558.1494127 -145.75 560.75 C-147.328125 562.453125 -147.328125 562.453125 -149 564 C-151.6476024 566.55363739 -153.88087162 569.16458702 -156.0625 572.125 C-159.31390884 576.42855013 -163.01043071 579.84473841 -167.125 583.31640625 C-169.19366596 585.23423199 -170.93038991 587.08789414 -172.74194336 589.22827148 C-176.94429821 594.06203481 -181.45640392 598.5554282 -186.0109272 603.05552673 C-187.5408175 604.56773464 -189.06688804 606.08370777 -190.59202576 607.60070801 C-194.92314614 611.9076251 -199.26000025 616.208734 -203.60131836 620.50537109 C-206.27213274 623.14921797 -208.93790191 625.79806875 -211.60075188 628.44993591 C-212.6070272 629.45006075 -213.615188 630.44829265 -214.62536812 631.44447327 C-219.68483802 636.43439753 -224.51247707 641.35552497 -228.61444092 647.17379761 C-230.47798643 649.7604749 -232.78604227 651.78494404 -235.13671875 653.9140625 C-236.91895262 655.76985333 -236.91895262 655.76985333 -238.06640625 658.5625 C-240.14962132 662.50659165 -242.79158957 665.08017704 -246 668.125 C-247.1749788 669.26898571 -248.34816979 670.41481066 -249.51953125 671.5625 C-250.07979004 672.11035156 -250.64004883 672.65820312 -251.21728516 673.22265625 C-254.24636166 676.24111796 -257.00175784 679.47828314 -259.75 682.75 C-260.25789063 683.33007812 -260.76578125 683.91015625 -261.2890625 684.5078125 C-263.77454856 687.35018887 -266.10142457 690.22010854 -268.28515625 693.30078125 C-272.40581524 698.81742377 -277.25626937 703.58591279 -282.125 708.4375 C-283.0325 709.36111328 -283.94 710.28472656 -284.875 711.23632812 C-289.33899414 715.7035384 -293.58053602 719.60174623 -299.06591797 722.74926758 C-301.39282743 724.13198748 -303.22823176 725.83000603 -305.125 727.75 C-305.77210938 728.389375 -306.41921875 729.02875 -307.0859375 729.6875 C-308.86995309 731.68991095 -308.86995309 731.68991095 -309.74609375 734.26171875 C-310.89302331 737.10449746 -312.20795844 738.48188656 -314.4375 740.5625 C-317.05657275 743.07886401 -319.53668962 745.59639708 -321.875 748.375 C-325.9465904 753.13942513 -330.44948609 757.4734337 -334.95166016 761.82666016 C-335.8360376 762.69363525 -335.8360376 762.69363525 -336.73828125 763.578125 C-337.26977783 764.0927832 -337.80127441 764.60744141 -338.34887695 765.13769531 C-339.82208521 766.67584881 -339.82208521 766.67584881 -340.56567383 768.56787109 C-342.35455846 771.86390301 -345.04515506 774.24808615 -347.7109375 776.8359375 C-348.29791412 777.41534088 -348.88489075 777.99474426 -349.48965454 778.59170532 C-351.99312407 781.0625948 -354.50820617 783.52153882 -357.02246094 785.98144531 C-358.86029194 787.78292151 -360.69195636 789.59050957 -362.5234375 791.3984375 C-363.08711029 791.94551361 -363.65078308 792.49258972 -364.23153687 793.0562439 C-366.7017765 795.49591138 -368.74298991 797.73935784 -370.66308594 800.65429688 C-373.45411075 804.79446939 -376.83501345 808.12094381 -380.3671875 811.6328125 C-381.1019632 812.36950165 -381.83673889 813.1061908 -382.59378052 813.86520386 C-384.142908 815.4156875 -385.69454472 816.96366769 -387.24853516 818.50927734 C-389.61723525 820.86727035 -391.97508063 823.235738 -394.33203125 825.60546875 C-395.84310918 827.11522499 -397.35480745 828.62436065 -398.8671875 830.1328125 C-399.91747635 831.18917404 -399.91747635 831.18917404 -400.98898315 832.26687622 C-405.40119231 836.6374036 -409.72634477 839.95215094 -415.0625 843.125 C-418.28706624 845.07473773 -421.37048496 847.2039623 -424.46875 849.34765625 C-430.47385296 853.03914934 -436.86637879 853.84635861 -443.75 854.75 C-444.49378906 854.86085938 -445.23757813 854.97171875 -446.00390625 855.0859375 C-453.63654305 855.69423113 -461.03670721 852.05526915 -467.75 848.75 C-468.08 848.09 -468.41 847.43 -468.75 846.75 C-471.05965848 845.69647157 -473.3929774 844.69280904 -475.75 843.75 C-475.75 843.09 -475.75 842.43 -475.75 841.75 C-477.07 841.42 -478.39 841.09 -479.75 840.75 C-479.75 840.09 -479.75 839.43 -479.75 838.75 C-480.41 838.75 -481.07 838.75 -481.75 838.75 C-483.375 837.375 -483.375 837.375 -484.75 835.75 C-484.75 835.09 -484.75 834.43 -484.75 833.75 C-485.53375 833.523125 -486.3175 833.29625 -487.125 833.0625 C-490.43762108 831.40618946 -490.49014357 830.10961714 -491.75 826.75 C-492.69166016 826.29367187 -492.69166016 826.29367187 -493.65234375 825.828125 C-496.15155206 824.5436157 -496.86518782 823.41406448 -498.25 821 C-498.67023438 820.28972656 -499.09046875 819.57945312 -499.5234375 818.84765625 C-499.92820312 818.15542969 -500.33296875 817.46320312 -500.75 816.75 C-503.26236794 812.75359589 -503.26236794 812.75359589 -506.3125 809.1875 C-510.29141504 805.20858496 -512.58695959 799.52599791 -514.3125 794.25 C-514.68568359 793.12078125 -514.68568359 793.12078125 -515.06640625 791.96875 C-517.62308719 783.67049414 -517.73091092 776.55870987 -513.75 768.75 C-513.42 767.863125 -513.09 766.97625 -512.75 766.0625 C-511.69695562 763.62733488 -510.33624246 761.86498995 -508.75 759.75 C-508.481875 758.945625 -508.21375 758.14125 -507.9375 757.3125 C-506.58367285 754.39108352 -504.83289254 753.00508074 -502.31640625 751.05859375 C-500.29981897 749.3739136 -498.7668729 747.3639198 -497.12890625 745.3203125 C-495.63394409 743.61783434 -494.04304082 742.21232537 -492.3125 740.75 C-487.4692014 736.64755014 -483.08216156 732.10839207 -478.67407227 727.54882812 C-478.09584717 726.95908203 -477.51762207 726.36933594 -476.921875 725.76171875 C-476.4072168 725.23022217 -475.89255859 724.69872559 -475.36230469 724.15112305 C-473.75 722.75 -473.75 722.75 -471.81835938 721.81835938 C-469.20733832 720.46970166 -467.53717897 718.74506954 -465.484375 716.64453125 C-464.27201172 715.41573242 -464.27201172 715.41573242 -463.03515625 714.16210938 C-462.19855469 713.30423828 -461.36195313 712.44636719 -460.5 711.5625 C-455.33714645 706.29022961 -450.16913333 701.14895578 -444.56347656 696.34741211 C-441.29093135 693.4647703 -438.31423272 690.2880716 -435.328125 687.11328125 C-432.73334974 684.44177876 -430.26988663 682.38225036 -427.03125 680.53125 C-421.26862505 677.08983448 -416.88749475 672.16552542 -412.25 667.375 C-406.81364233 661.80604824 -401.40809202 656.32567332 -395.48779297 651.26953125 C-392.15892587 648.35876013 -389.18391713 645.0930499 -386.14453125 641.88671875 C-383.75 639.75 -383.75 639.75 -381.265625 638.76953125 C-377.92454273 637.41545909 -376.14614808 635.36445113 -373.6875 632.75 C-369.1540191 627.94409112 -369.1540191 627.94409112 -366.82543945 626.82543945 C-364.44294717 625.59089311 -362.9890659 624.17023676 -361.140625 622.23046875 C-360.46773437 621.53759766 -359.79484375 620.84472656 -359.1015625 620.13085938 C-357.71385181 618.68253307 -356.32838708 617.23205107 -354.9453125 615.77929688 C-351.09070651 611.81843273 -347.41394211 608.75607233 -342.64746094 605.97290039 C-339.41077049 603.88687588 -336.88586467 601.15725642 -334.25 598.375 C-333.11388822 597.20647419 -331.97588064 596.03978847 -330.8359375 594.875 C-330.29936523 594.32585938 -329.76279297 593.77671875 -329.20996094 593.2109375 C-327.50466867 591.50450457 -325.72335731 589.92471443 -323.875 588.375 C-321.18905561 586.11105112 -318.70273221 583.71410873 -316.24609375 581.20703125 C-315.60075684 580.54944824 -314.95541992 579.89186523 -314.29052734 579.21435547 C-313.00904005 577.90123432 -311.73416317 576.58161604 -310.46728516 575.25439453 C-307.27195191 571.98098143 -304.14701332 569.24075324 -300.28125 566.78125 C-295.44111969 563.69131081 -291.64287746 559.94784517 -287.6875 555.8125 C-283.20069932 551.17569812 -278.66380071 546.75283812 -273.76977539 542.54711914 C-269.42822127 538.6841698 -265.44320698 534.44030348 -261.3984375 530.27148438 C-260.72554688 529.58763672 -260.05265625 528.90378906 -259.359375 528.19921875 C-258.4617041 527.27629028 -258.4617041 527.27629028 -257.54589844 526.3347168 C-255.70255659 524.70813551 -253.97438166 523.76937553 -251.75 522.75 C-245.23397632 517.90636981 -239.66549801 511.71838238 -234.0300293 505.90551758 C-233.40652588 505.27025146 -232.78302246 504.63498535 -232.140625 503.98046875 C-231.58407227 503.40707764 -231.02751953 502.83368652 -230.45410156 502.24291992 C-228.75 500.75 -228.75 500.75 -226.85900879 499.85900879 C-224.57154481 498.65616048 -223.11377516 497.34862252 -221.30175781 495.51293945 C-220.31988495 494.52599846 -220.31988495 494.52599846 -219.31817627 493.51911926 C-218.27122589 492.45197945 -218.27122589 492.45197945 -217.203125 491.36328125 C-216.47309265 490.62804733 -215.7430603 489.89281342 -214.99090576 489.13529968 C-212.65580512 486.7823975 -210.32747553 484.42294328 -208 482.0625 C-205.68600133 479.72073528 -203.3705138 477.38049486 -201.05194092 475.04325867 C-199.61097625 473.59020192 -198.17269026 472.13448192 -196.73760986 470.6756134 C-192.82531957 466.72502696 -188.81450541 462.97113439 -184.58183289 459.36480713 C-180.6572276 455.90516808 -177.09014199 452.0524115 -173.48242188 448.26757812 C-170.33396015 445.04612783 -167.29540195 442.35187703 -163.46484375 439.96875 C-157.42514049 436.11382582 -152.69412141 430.94500948 -147.75 425.8125 C-142.07742753 419.94529962 -136.48159798 414.37426743 -129.93408203 409.48657227 C-125.85063897 406.23981053 -122.30797037 402.4329219 -118.6875 398.6875 C-117.18088914 397.12916001 -115.66922413 395.57568924 -114.15234375 394.02734375 C-113.16995728 393.01015259 -113.16995728 393.01015259 -112.16772461 391.97241211 C-110.1701331 390.13619323 -108.21195139 388.60309542 -106.02075195 387.02075195 C-101.23707749 383.48859864 -97.1669004 379.38309587 -93.015625 375.140625 C-92.21517761 374.33260437 -91.41473022 373.52458374 -90.59002686 372.69207764 C-88.05508181 370.13287415 -85.52676521 367.56727834 -83 365 C-79.65679015 361.60363292 -76.3070363 358.21392097 -72.953125 354.828125 C-71.80774261 353.6578476 -71.80774261 353.6578476 -70.63922119 352.46392822 C-69.92457703 351.74267761 -69.20993286 351.021427 -68.47363281 350.27832031 C-67.84934387 349.64355774 -67.22505493 349.00879517 -66.58184814 348.35479736 C-64.71351736 346.71803925 -62.95948856 345.85451032 -60.75 344.75 C-59.37339263 343.57662643 -58.0424154 342.34870533 -56.74755859 341.08569336 C-55.97350677 340.33408432 -55.19945496 339.58247528 -54.40194702 338.80809021 C-53.57578888 337.99356888 -52.74963074 337.17904755 -51.8984375 336.33984375 C-51.04319489 335.49837296 -50.18795227 334.65690216 -49.30679321 333.78993225 C-47.50012386 332.00653159 -45.69643375 330.22010853 -43.89550781 328.4309082 C-41.14397661 325.70629099 -38.36940618 323.00664637 -35.59375 320.30664062 C-33.83965905 318.56920808 -32.08700667 316.83032174 -30.3359375 315.08984375 C-29.09062759 313.88931618 -29.09062759 313.88931618 -27.82015991 312.66453552 C-21.53016044 306.32598007 -20.14946529 301.62347648 -19.4375 292.9375 C-18.75 289.75 -18.75 289.75 -16.625 287.5625 C-14.62701057 286.30289797 -12.57958235 285.11977511 -10.5 284 C-6.46850126 281.77784492 -3.26363126 278.80093296 0.11328125 275.69921875 C1.86650102 274.09984642 3.64340356 272.59977712 5.5 271.125 C7.60533764 269.30675385 9.11855575 267.76471905 10.8125 265.625 C13.17714763 262.83592844 15.16186937 261.58618578 18.25 259.75 C19.39209817 257.96771064 19.39209817 257.96771064 20.25 255.75 C20.91 254.615625 21.57 253.48125 22.25 252.3125 C25.08431779 247.34186805 26.64896454 243.60147994 26.25 237.75 C25.92 237.42 25.59 237.09 25.25 236.75 C25.01744186 232.21511628 25.01744186 232.21511628 26.25 229.75 C25.49714403 227.15952023 25.49714403 227.15952023 24.25 224.75 C23.59 224.42 22.93 224.09 22.25 223.75 C22.25 223.09 22.25 222.43 22.25 221.75 C21.59 221.75 20.93 221.75 20.25 221.75 C20.25 220.43 20.25 219.11 20.25 217.75 C19.59 217.75 18.93 217.75 18.25 217.75 C18.25 217.09 18.25 216.43 18.25 215.75 C17.59 215.75 16.93 215.75 16.25 215.75 C15.01969274 214.1511809 13.86359837 212.49469415 12.75 210.8125 C10.54021822 207.18229314 10.54021822 207.18229314 7.25 204.75 C7.25 204.09 7.25 203.43 7.25 202.75 C5.93 202.42 4.61 202.09 3.25 201.75 C3.25 201.09 3.25 200.43 3.25 199.75 C1.93 199.42 0.61 199.09 -0.75 198.75 C-0.75 198.09 -0.75 197.43 -0.75 196.75 C-1.41 196.75 -2.07 196.75 -2.75 196.75 C-4.375 195.375 -4.375 195.375 -5.75 193.75 C-5.75 193.09 -5.75 192.43 -5.75 191.75 C-6.41 191.75 -7.07 191.75 -7.75 191.75 C-9.37109375 190.0703125 -9.37109375 190.0703125 -11.1875 187.875 C-13.33400884 185.28806278 -14.91776562 183.63815626 -17.75 181.75 C-17.75 181.09 -17.75 180.43 -17.75 179.75 C-18.41 179.75 -19.07 179.75 -19.75 179.75 C-21.30078125 178.17578125 -21.30078125 178.17578125 -23.0625 176.0625 C-25.16748699 173.57518761 -27.2630606 171.18237535 -29.625 168.9375 C-31.75 166.75 -31.75 166.75 -32.75 163.75 C-33.41 163.75 -34.07 163.75 -34.75 163.75 C-36.30078125 162.17578125 -36.30078125 162.17578125 -38.0625 160.0625 C-41.52329812 155.99139516 -45.18031352 152.23483856 -49.0625 148.5625 C-50.75 146.75 -50.75 146.75 -50.75 144.75 C-51.41 144.75 -52.07 144.75 -52.75 144.75 C-54.40625 143.0703125 -54.40625 143.0703125 -56.25 140.875 C-58.03933258 138.75964496 -59.79019124 136.70980876 -61.75 134.75 C-61.75 133.76 -61.75 132.77 -61.75 131.75 C-62.41 131.75 -63.07 131.75 -63.75 131.75 C-65.16015625 130.0625 -65.16015625 130.0625 -66.8125 127.75 C-70.11787203 123.33586394 -73.78615746 119.88372631 -78.02734375 116.37890625 C-78.88005859 115.57259766 -78.88005859 115.57259766 -79.75 114.75 C-79.75 114.09 -79.75 113.43 -79.75 112.75 C-80.389375 112.481875 -81.02875 112.21375 -81.6875 111.9375 C-83.75 110.75 -83.75 110.75 -84.75 107.75 C-85.74 107.75 -86.73 107.75 -87.75 107.75 C-88.41 105.77 -89.07 103.79 -89.75 101.75 C-90.41 101.75 -91.07 101.75 -91.75 101.75 C-94.55264662 97.07892229 -95.58683072 93.12540674 -94.75 87.75 C-92.93474482 80.51472759 -88.78528971 76.58361956 -83.20703125 71.87109375 C-79.99863359 69.10136413 -77.42342911 66.0199794 -74.75 62.75 C-73.62857127 61.47601414 -72.50337527 60.20533738 -71.375 58.9375 C-68.74686634 55.95124703 -66.26393007 52.88264939 -63.8125 49.75 C-60.66649796 45.77802059 -57.31989538 42.20957129 -53.6875 38.68359375 C-51.13399802 36.13523996 -48.81274375 33.41624214 -46.46484375 30.6796875 C-44.79634438 28.80215062 -43.05547393 27.05765743 -41.25 25.3125 C-38.70114982 22.82567936 -36.59476251 20.25280468 -34.5 17.375 C-30.35734842 11.8920788 -25.15932787 7.92268212 -19.75 3.75 C-18.95851563 3.02425781 -18.16703125 2.29851562 -17.3515625 1.55078125 C-11.84023379 -2.26411745 -6.27439913 -1.28511789 0 0 Z " fill="#050605" transform="translate(590.75,85.25)"/>
<path d="M0 0 C3.19425974 1.54205642 6.03138909 3.37704674 8.9765625 5.359375 C11.46503826 7.25036298 11.46503826 7.25036298 13.68359375 7.55078125 C16.41072135 8.37986976 17.37787023 9.72729235 19.1640625 11.921875 C21.17763037 14.35278493 23.06692472 16.48057561 25.4140625 18.609375 C28.63040949 22.17343517 31.7265625 27.21813994 31.7265625 32.171875 C32.3865625 32.171875 33.0465625 32.171875 33.7265625 32.171875 C36.19964106 40.05481292 36.19964106 40.05481292 35.7265625 44.171875 C34.1875 46.26953125 34.1875 46.26953125 32.1015625 48.234375 C31.42867187 48.88535156 30.75578125 49.53632813 30.0625 50.20703125 C27.7265625 52.171875 27.7265625 52.171875 24.83203125 54.0390625 C21.32353644 56.44867025 18.58417756 59.16354433 15.6640625 62.234375 C10.38910787 67.77949376 10.38910787 67.77949376 7.3125 69.6015625 C3.47609641 71.93122148 0.55642183 75.05388795 -2.5859375 78.234375 C-3.21177734 78.85248047 -3.83761719 79.47058594 -4.48242188 80.10742188 C-7.83037872 83.46911393 -10.87785652 86.89722742 -13.7578125 90.66796875 C-19.8824092 98.46446923 -27.15793292 105.22888541 -34.2109375 112.171875 C-36.36007994 114.29336259 -38.50770274 116.41633662 -40.65248108 118.54223633 C-41.97853297 119.85605764 -43.30724925 121.16719642 -44.63890076 122.4753418 C-45.233647 123.06355713 -45.82839325 123.65177246 -46.44116211 124.2578125 C-46.96552353 124.7739209 -47.48988495 125.2900293 -48.03013611 125.82177734 C-49.3890948 127.17241773 -49.3890948 127.17241773 -50.2734375 129.171875 C-50.9334375 129.171875 -51.5934375 129.171875 -52.2734375 129.171875 C-52.65798096 130.03196167 -52.65798096 130.03196167 -53.05029297 130.90942383 C-59.49207903 142.82479935 -72.88903654 152.83082098 -82.44238281 162.24487305 C-84.65869132 164.43099374 -86.86874639 166.62328534 -89.078125 168.81640625 C-89.75624237 169.481064 -90.43435974 170.14572174 -91.13302612 170.83052063 C-91.76443512 171.45855087 -92.39584412 172.08658112 -93.04638672 172.73364258 C-93.87503738 173.5511071 -93.87503738 173.5511071 -94.72042847 174.38508606 C-96.38155692 176.18621384 -96.38155692 176.18621384 -97.70161438 178.6010437 C-99.4164828 181.40583601 -101.31100459 183.43637383 -103.6496582 185.7434082 C-104.5309993 186.61814285 -105.41234039 187.4928775 -106.32038879 188.39411926 C-106.78920786 188.85470041 -107.25802692 189.31528156 -107.74105263 189.78981972 C-109.22219024 191.24522871 -110.69681329 192.70696951 -112.16996765 194.17045593 C-115.8315462 197.80541087 -119.50385337 201.42946378 -123.17602539 205.05371094 C-126.27961568 208.11758522 -129.37890539 211.18569306 -132.4727993 214.25935936 C-133.91431383 215.68806157 -135.36179097 217.11051992 -136.80964661 218.53279114 C-141.22912029 222.91948856 -145.25445949 227.26432031 -148.87800598 232.32673645 C-151.31696496 235.55170104 -154.20387168 238.30816843 -157.09765625 241.12109375 C-158.03977715 242.05185478 -158.03977715 242.05185478 -159.00093079 243.00141907 C-160.98275016 244.95907047 -162.97096253 246.9100167 -164.9609375 248.859375 C-167.59568103 251.4407695 -170.22360908 254.02883195 -172.84765625 256.62109375 C-173.44768967 257.20453049 -174.04772308 257.78796722 -174.66593933 258.38908386 C-177.79221805 261.47854751 -180.02434432 264.37678861 -182.2734375 268.171875 C-184.17255863 270.23383798 -186.07996984 272.21209047 -188.078125 274.171875 C-188.91961594 275.00912109 -188.91961594 275.00912109 -189.77810669 275.86328125 C-191.56354971 277.63759142 -193.35581925 279.40481736 -195.1484375 281.171875 C-196.34551449 282.35890886 -197.5421337 283.54640456 -198.73828125 284.734375 C-200.94492941 286.92475305 -203.15422667 289.11238081 -205.36669922 291.296875 C-207.23215961 293.13935924 -209.09003449 294.98847199 -210.9440918 296.8425293 C-212.82261138 298.72104888 -214.71178317 300.58626471 -216.61328125 302.44140625 C-224.67738107 310.30778571 -224.67738107 310.30778571 -231.65625 319.1171875 C-234.38096745 322.57902658 -237.59673966 325.57746907 -240.78564453 328.60986328 C-243.52311041 331.25389415 -245.88976147 333.92518534 -248.1171875 337.015625 C-252.14660812 342.53509179 -257.0925993 347.08526661 -261.99609375 351.81640625 C-266.00177138 355.73609437 -269.48482108 359.66858511 -272.75878906 364.21191406 C-275.47428509 367.72577643 -278.70098465 370.72681071 -281.8984375 373.796875 C-286.95009766 378.60323105 -286.95009766 378.60323105 -291.19921875 384.09765625 C-294.19417587 388.53650983 -297.99611857 392.02417021 -301.8359375 395.734375 C-303.36280528 397.20996259 -304.88510759 398.69029197 -306.40234375 400.17578125 C-307.07338135 400.82361572 -307.74441895 401.4714502 -308.43579102 402.13891602 C-310.42097411 404.3350924 -311.75872307 406.63504026 -313.2734375 409.171875 C-314.98754883 411.08129883 -314.98754883 411.08129883 -316.85546875 412.87890625 C-317.54060547 413.54857422 -318.22574219 414.21824219 -318.93164062 414.90820312 C-320.35590746 416.28081931 -321.78038308 417.6532189 -323.20507812 419.02539062 C-324.23858398 420.03569336 -324.23858398 420.03569336 -325.29296875 421.06640625 C-325.91276611 421.66300049 -326.53256348 422.25959473 -327.17114258 422.87426758 C-328.91878747 424.78427641 -330.35359802 426.64981814 -331.85180664 428.74804688 C-336.01426622 434.37526136 -341.02876265 439.15562162 -346 444.05859375 C-347.03610825 445.08841584 -348.07169255 446.11876532 -349.10678101 447.14961243 C-351.81348746 449.84311551 -354.52572798 452.53096797 -357.23968506 455.21716309 C-361.59045942 459.52455298 -365.93433905 463.83886923 -370.27500534 468.15644264 C-371.78368731 469.6549749 -373.29577129 471.15000847 -374.80825806 472.6446991 C-375.72956512 473.55947525 -376.65087219 474.4742514 -377.60009766 475.41674805 C-378.81205307 476.61632393 -378.81205307 476.61632393 -380.04849243 477.84013367 C-382.35158385 480.17390804 -382.35158385 480.17390804 -384.44052124 482.96907043 C-385.34781479 484.05945869 -385.34781479 484.05945869 -386.2734375 485.171875 C-386.9334375 485.171875 -387.5934375 485.171875 -388.2734375 485.171875 C-388.49515625 485.708125 -388.716875 486.244375 -388.9453125 486.796875 C-390.72152715 489.97316473 -393.07000472 492.51453762 -395.5234375 495.171875 C-395.98878906 495.69265625 -396.45414062 496.2134375 -396.93359375 496.75 C-400.07719589 500.17938415 -403.34763424 502.63031451 -407.2734375 505.171875 C-407.6034375 505.831875 -407.9334375 506.491875 -408.2734375 507.171875 C-409.3253125 507.5740625 -409.3253125 507.5740625 -410.3984375 507.984375 C-412.91044713 509.0219442 -414.51274248 510.00279361 -416.6484375 511.609375 C-425.20977703 517.87421787 -437.62404693 521.46577052 -448.2734375 521.171875 C-451.45669252 520.52991857 -454.30532728 519.47547332 -457.2734375 518.171875 C-457.95277344 517.88054688 -458.63210938 517.58921875 -459.33203125 517.2890625 C-467.98737613 513.27352238 -474.83074042 506.97684832 -481.5234375 500.296875 C-482.21695313 499.62785156 -482.91046875 498.95882813 -483.625 498.26953125 C-488.00329659 493.91639729 -490.82535719 489.81754417 -493.2734375 484.171875 C-493.69109375 483.40617187 -494.10875 482.64046875 -494.5390625 481.8515625 C-496.75257479 477.79345664 -497.74792944 474.9167944 -497.2734375 470.171875 C-497.9334375 470.171875 -498.5934375 470.171875 -499.2734375 470.171875 C-499.84037967 463.25518053 -498.65430319 458.97739516 -495.546875 452.796875 C-494.45357617 450.54320378 -493.75294134 448.50672214 -493.0859375 446.109375 C-491.34129622 441.2063314 -487.4879563 438.14050643 -483.78125 434.64453125 C-480.9638397 431.86661736 -478.73265227 428.93972498 -476.52734375 425.66796875 C-475.2734375 424.171875 -475.2734375 424.171875 -472.2734375 423.171875 C-472.2734375 422.511875 -472.2734375 421.851875 -472.2734375 421.171875 C-471.6134375 421.171875 -470.9534375 421.171875 -470.2734375 421.171875 C-470.2734375 420.511875 -470.2734375 419.851875 -470.2734375 419.171875 C-469.6134375 419.171875 -468.9534375 419.171875 -468.2734375 419.171875 C-468.2734375 418.511875 -468.2734375 417.851875 -468.2734375 417.171875 C-466.76733398 415.88598633 -466.76733398 415.88598633 -464.70703125 414.44140625 C-460.64498047 411.4909995 -456.97843359 408.30771894 -453.3359375 404.859375 C-452.3924646 403.97499756 -452.3924646 403.97499756 -451.42993164 403.07275391 C-445.50515451 397.47830071 -439.76252262 391.70201914 -434.08422852 385.8581543 C-433.07767212 384.83395386 -433.07767212 384.83395386 -432.05078125 383.7890625 C-431.46546631 383.18690918 -430.88015137 382.58475586 -430.27709961 381.96435547 C-428.2734375 380.171875 -428.2734375 380.171875 -425.36157227 378.26220703 C-422.20024577 376.12233214 -419.74538132 373.84123938 -417.0859375 371.109375 C-416.62034424 370.6362085 -416.15475098 370.16304199 -415.67504883 369.67553711 C-414.20283112 368.17913209 -412.73733906 366.67641362 -411.2734375 365.171875 C-409.3419174 363.18673702 -407.40358369 361.20861986 -405.4609375 359.234375 C-404.60886719 358.35910156 -403.75679688 357.48382812 -402.87890625 356.58203125 C-400.17648172 354.08218727 -397.3485084 352.18475241 -394.2734375 350.171875 C-392.37759242 348.51379586 -392.37759242 348.51379586 -390.765625 346.7890625 C-390.17136719 346.17933594 -389.57710938 345.56960938 -388.96484375 344.94140625 C-388.36542969 344.31621094 -387.76601563 343.69101562 -387.1484375 343.046875 C-385.94236332 341.78958748 -384.73157469 340.53680173 -383.515625 339.2890625 C-382.72454346 338.46317627 -382.72454346 338.46317627 -381.91748047 337.62060547 C-380.14324812 336.05715213 -378.39319005 335.19783737 -376.2734375 334.171875 C-374.55985107 332.55348781 -372.9026649 330.87515819 -371.2734375 329.171875 C-369.9672587 327.81161012 -368.65428167 326.45785275 -367.3359375 325.109375 C-366.70816406 324.45839844 -366.08039063 323.80742188 -365.43359375 323.13671875 C-363.2734375 321.171875 -363.2734375 321.171875 -360.6171875 319.5234375 C-355.66981413 316.33281348 -351.78551127 311.80999901 -347.7109375 307.609375 C-346.04780736 305.89503223 -344.37999192 304.18521964 -342.70703125 302.48046875 C-341.97540771 301.72564209 -341.24378418 300.97081543 -340.48999023 300.19311523 C-338.21846392 298.12174544 -335.90665496 296.74110324 -333.2734375 295.171875 C-331.88587339 293.91658583 -330.54201623 292.61155603 -329.2421875 291.265625 C-328.51386719 290.52183594 -327.78554688 289.77804687 -327.03515625 289.01171875 C-325.91560547 287.85349609 -325.91560547 287.85349609 -324.7734375 286.671875 C-323.28873731 285.13588983 -321.79929254 283.60447386 -320.3046875 282.078125 C-319.65048828 281.40072266 -318.99628906 280.72332031 -318.32226562 280.02539062 C-316.12064593 278.03364888 -313.83172262 276.6651397 -311.2734375 275.171875 C-308.71365548 272.7419076 -306.30402526 270.20084439 -303.87109375 267.64453125 C-301.2734375 265.171875 -301.2734375 265.171875 -298.48443604 263.378479 C-295.05265934 261.02015585 -292.2005556 258.35220888 -289.29980469 255.39355469 C-288.45474869 254.54411789 -288.45474869 254.54411789 -287.59262085 253.67752075 C-286.3791088 252.45643938 -285.16791121 251.23305431 -283.95882416 250.00759125 C-282.04707555 248.07020138 -280.1290478 246.13922921 -278.20928955 244.20977783 C-274.14168995 240.11939649 -270.08202811 236.02119286 -266.0234375 231.921875 C-261.30593605 227.15721241 -256.5852582 222.39578975 -251.85611725 217.64267731 C-249.96301496 215.73657403 -248.07601308 213.82456732 -246.18914795 211.91229248 C-245.03622376 210.75210809 -243.88302058 209.59220085 -242.72949219 208.43261719 C-242.20376617 207.89655853 -241.67804016 207.36049988 -241.13638306 206.80819702 C-239.88611739 205.55756571 -238.58430461 204.35883344 -237.2734375 203.171875 C-236.6134375 203.171875 -235.9534375 203.171875 -235.2734375 203.171875 C-235.2734375 202.511875 -235.2734375 201.851875 -235.2734375 201.171875 C-233.78683472 199.92306519 -233.78683472 199.92306519 -231.74169922 198.50732422 C-227.32756055 195.30168165 -223.58140361 191.70486911 -219.78125 187.8046875 C-219.10923553 187.12509979 -218.43722107 186.44551208 -217.74484253 185.74533081 C-215.62439709 183.60068522 -213.51064739 181.44963005 -211.3984375 179.296875 C-208.59422692 176.43963567 -205.78355427 173.58898641 -202.96875 170.7421875 C-202.32608185 170.08292267 -201.6834137 169.42365784 -201.02127075 168.74441528 C-200.42660004 168.14313812 -199.83192932 167.54186096 -199.21923828 166.92236328 C-198.69709747 166.38974884 -198.17495667 165.8571344 -197.63699341 165.30838013 C-196.2734375 164.171875 -196.2734375 164.171875 -194.2734375 164.171875 C-194.2734375 163.511875 -194.2734375 162.851875 -194.2734375 162.171875 C-192.8125 160.8828125 -192.8125 160.8828125 -190.8984375 159.546875 C-190.27195312 159.10085938 -189.64546875 158.65484375 -189 158.1953125 C-187.2734375 157.171875 -187.2734375 157.171875 -185.2734375 157.171875 C-185.04269531 156.61628906 -184.81195313 156.06070313 -184.57421875 155.48828125 C-182.92152358 152.54519345 -180.85334962 150.48743982 -178.4609375 148.109375 C-177.60886719 147.25214844 -176.75679688 146.39492188 -175.87890625 145.51171875 C-172.81907548 142.76383474 -169.76992266 140.83697952 -166.0234375 139.171875 C-163.92206276 138.22907554 -163.92206276 138.22907554 -163.2734375 135.171875 C-161.7421875 133.62890625 -161.7421875 133.62890625 -159.7734375 131.984375 C-158.690625 131.06591797 -158.690625 131.06591797 -157.5859375 130.12890625 C-156.8228125 129.48308594 -156.0596875 128.83726562 -155.2734375 128.171875 C-153.76955453 126.84292286 -152.2695619 125.50955567 -150.7734375 124.171875 C-147.89677182 121.60713692 -145.00105746 119.06775969 -142.0859375 116.546875 C-139.64445392 114.42510951 -137.33235075 112.24851729 -135.0859375 109.921875 C-132.2734375 107.171875 -132.2734375 107.171875 -129.85449219 105.74902344 C-127.20012664 104.12707854 -125.32097869 102.41904279 -123.1640625 100.1875 C-122.40867187 99.41664063 -121.65328125 98.64578125 -120.875 97.8515625 C-119.32265723 96.24764688 -117.77056867 94.64348519 -116.21875 93.0390625 C-112.64423768 89.39184824 -109.12853506 85.9586974 -105.01953125 82.91796875 C-98.42254974 77.9533486 -92.84120763 71.87611449 -87.0859375 65.984375 C-84.80672514 63.6516166 -82.52070561 61.32583634 -80.23046875 59.00390625 C-79.46619316 58.21473564 -79.46619316 58.21473564 -78.68647766 57.40962219 C-77.94992195 56.66315681 -77.94992195 56.66315681 -77.19848633 55.90161133 C-76.77706863 55.46972 -76.35565094 55.03782867 -75.92146301 54.59284973 C-74.2734375 53.171875 -74.2734375 53.171875 -71.40164185 51.30206299 C-68.32002472 49.20359912 -65.90243535 47.01700069 -63.29711914 44.35913086 C-62.61041389 43.66322594 -62.61041389 43.66322594 -61.90983582 42.95326233 C-60.92554582 41.9547686 -59.94352926 40.95402948 -58.9636097 39.95124626 C-57.40833602 38.3608913 -55.84582095 36.77798501 -54.28111267 35.19691467 C-49.83666863 30.70382252 -45.40370884 26.19952732 -40.97973633 21.6862793 C-38.2646514 18.91743504 -35.53974387 16.15857241 -32.8086834 13.40548897 C-31.77509772 12.3595469 -30.74531417 11.30983256 -29.71956062 10.25620842 C-28.28192233 8.77984622 -26.83210741 7.31649197 -25.37915039 5.85522461 C-24.56007706 5.02123642 -23.74100372 4.18724823 -22.89710999 3.32798767 C-15.95014904 -2.38096823 -8.39063613 -3.05638292 0 0 Z " fill="#AB925F" transform="translate(592.2734375,402.828125)"/>
<path d="M0 0 C0.66 0 1.32 0 2 0 C3.55078125 1.57421875 3.55078125 1.57421875 5.3125 3.6875 C7.39338102 6.14475659 9.44244378 8.43238824 11.75 10.6875 C13.99634658 12.9962451 15.35112036 15.25186727 17 18 C17.886875 18.886875 18.77375 19.77375 19.6875 20.6875 C22 23 22 23 22 25 C22.61875 25.144375 23.2375 25.28875 23.875 25.4375 C26 26 26 26 28 27 C28.27972656 27.91652344 28.55945313 28.83304687 28.84765625 29.77734375 C30.15077488 33.42165858 31.61075773 34.96783838 34.4375 37.5625 C37.64829558 40.52997334 39.78000501 43.25264845 42 47 C43.29103643 48.3743291 44.6256709 49.70896357 46 51 C48.15152691 53.02113134 49.83194746 54.70078451 51.28125 57.28125 C53.79225289 61.25320003 57.12602019 64.25455275 60.5 67.5 C61.84851739 68.7971453 63.19242003 70.09910831 64.53125 71.40625 C65.12486328 71.97666016 65.71847656 72.54707031 66.33007812 73.13476562 C68 75 68 75 69.47045898 77.46386719 C71.05876795 80.09744317 72.76431613 82.00786743 74.94140625 84.171875 C75.68970703 84.91824219 76.43800781 85.66460937 77.20898438 86.43359375 C77.98564453 87.19800781 78.76230469 87.96242188 79.5625 88.75 C80.34302734 89.52988281 81.12355469 90.30976563 81.92773438 91.11328125 C85.62093815 95.01529219 85.62093815 95.01529219 90 98 C90.226875 98.70125 90.45375 99.4025 90.6875 100.125 C92.3167532 103.69384035 94.57991136 105.72208071 97.44140625 108.3515625 C100.19681161 111.26580075 100.56910749 114.89026168 100.5546875 118.8125 C99.59395144 122.60131827 96.78317358 124.65222688 93.953125 127.1953125 C91.73536964 129.24451845 90.52726409 131.41029133 89 134 C87.24912027 135.81838352 85.43587788 137.56198916 83.62109375 139.31640625 C81.87074551 141.004214 81.87074551 141.004214 80.5625 143.4375 C78.46027171 146.88515439 75.67127762 149.37539067 72.7421875 152.1328125 C70.77503826 153.98157125 70.77503826 153.98157125 70 157 C68.35178756 158.03013277 66.67888441 159.02065076 65 160 C59.14238246 164.02711206 54.035423 168.76022781 49 173.75 C48.42378906 174.31702637 47.84757813 174.88405273 47.25390625 175.46826172 C44.797702 177.94287278 43.11721861 179.64834418 42 183 C41.236875 183.45375 40.47375 183.9075 39.6875 184.375 C36.85844466 185.86769169 36.85844466 185.86769169 35 188.5625 C32.7512498 191.30316431 31.25077914 191.78095782 28 193 C27.38125 193.680625 26.7625 194.36125 26.125 195.0625 C23.24879932 197.68491827 20.80059657 197.70764642 17 198 C16.01 196.4840625 16.01 196.4840625 15 194.9375 C11.89169241 190.58936185 8.08923717 187.39913251 4 184 C-2.07870168 178.90477157 -7.6679822 173.71393113 -12 167 C-12 166.34 -12 165.68 -12 165 C-12.61875 164.87625 -13.2375 164.7525 -13.875 164.625 C-16 164 -16 164 -18 162 C-18 161.01 -18 160.02 -18 159 C-18.5775 158.71125 -19.155 158.4225 -19.75 158.125 C-20.4925 157.75375 -21.235 157.3825 -22 157 C-22.96292969 156.58041016 -22.96292969 156.58041016 -23.9453125 156.15234375 C-26.26921172 154.84901624 -27.46034627 153.50786079 -29.125 151.4375 C-32.60929693 147.31155524 -36.45117793 143.80533917 -40.50390625 140.24609375 C-43.55023639 137.50487336 -46.39014148 134.59974461 -49.2109375 131.62890625 C-50.89701782 129.93535682 -50.89701782 129.93535682 -52.9140625 129.08984375 C-55.20128853 127.8948324 -56.69497071 126.37006968 -58.48828125 124.54005432 C-60.16213476 122.8348262 -61.86147544 121.15781605 -63.56518555 119.48242188 C-67.17277345 115.92825975 -70.77116286 112.36493706 -74.36645508 108.79833984 C-75.91653263 107.26342556 -77.46928094 105.73120383 -79.0246582 104.20166016 C-81.27745201 101.98524392 -83.52042594 99.75928817 -85.76171875 97.53125 C-86.45754562 96.85090698 -87.1533725 96.17056396 -87.87028503 95.46960449 C-91.18381314 92.15724154 -93.6173336 89.58832202 -95 85 C-96.44767422 83.43832356 -96.44767422 83.43832356 -98.1875 82.1875 C-100.91003945 79.99371822 -103.18558662 77.73793837 -105.4375 75.0625 C-108.46113051 71.49844684 -111.73381193 68.45866576 -115.30078125 65.4453125 C-117 64 -117 64 -119 62 C-119 60.68 -119 59.36 -119 58 C-119.66 58 -120.32 58 -121 58 C-121.33 55.69 -121.66 53.38 -122 51 C-122.66 51 -123.32 51 -124 51 C-124.14695312 50.12988281 -124.14695312 50.12988281 -124.296875 49.2421875 C-125.96196304 40.54353793 -130.03523695 35.7186455 -136.390625 29.734375 C-138 28 -138 28 -138 26 C-133.70523215 26.48620013 -129.53827777 27.09544054 -125.3125 28 C-118.84717906 29.2314897 -112.35243283 29.39609247 -105.78833008 29.5703125 C-98.64289499 29.80606029 -91.80157696 30.73280768 -85 33 C-84.0925 33.020625 -83.185 33.04125 -82.25 33.0625 C-77.97352168 34.29609952 -76.46645166 36.53760959 -73.80859375 39.9921875 C-71.63229234 42.40821109 -69.99646867 43.69373998 -67 45 C-64.11638848 45.05366172 -61.53084829 44.9746299 -58.6875 44.6875 C-57.94693359 44.62626953 -57.20636719 44.56503906 -56.44335938 44.50195312 C-54.62758328 44.34966223 -52.81354599 44.17687934 -51 44 C-51 43.34 -51 42.68 -51 42 C-50.16597656 41.76925781 -49.33195313 41.53851563 -48.47265625 41.30078125 C-41.40994597 39.2539706 -35.21426413 36.93275945 -29 33 C-27.9275 32.34 -26.855 31.68 -25.75 31 C-22.87887965 29.0372678 -22.87887965 29.0372678 -20.375 26.25 C-18 24 -18 24 -14 24 C-13.34 22.68 -12.68 21.36 -12 20 C-11.34 20 -10.68 20 -10 20 C-9.8453125 18.8553125 -9.8453125 18.8553125 -9.6875 17.6875 C-9 15 -9 15 -7.62109375 13.68359375 C-5.4990181 11.47970314 -4.58044032 9.17783364 -3.375 6.375 C-1.08333333 1.08333333 -1.08333333 1.08333333 0 0 Z " fill="#D3D3D3" transform="translate(837,334)"/>
<path d="M0 0 C4.68319304 1.36646591 6.93201809 4.64663168 9.78125 8.44921875 C11.63501091 10.96167952 11.63501091 10.96167952 14.2043457 11.72705078 C17.27006075 13.00671751 18.93937218 14.54698525 21.27734375 16.89453125 C22.07333984 17.69117187 22.86933594 18.4878125 23.68945312 19.30859375 C24.91438477 20.55769531 24.91438477 20.55769531 26.1640625 21.83203125 C27.00001953 22.66476563 27.83597656 23.4975 28.69726562 24.35546875 C34.8515625 30.5650287 34.8515625 30.5650287 34.8515625 32.83203125 C36.8315625 33.16203125 38.8115625 33.49203125 40.8515625 33.83203125 C41.1815625 34.82203125 41.5115625 35.81203125 41.8515625 36.83203125 C43.60795625 38.65012325 43.60795625 38.65012325 45.7265625 40.39453125 C46.42523437 40.99394531 47.12390625 41.59335938 47.84375 42.2109375 C49.96125699 43.97095791 49.96125699 43.97095791 52.8515625 45.83203125 C52.8515625 46.49203125 52.8515625 47.15203125 52.8515625 47.83203125 C53.60179687 47.91710937 54.35203125 48.0021875 55.125 48.08984375 C58.41016238 48.98408566 59.37072579 50.08194713 61.4765625 52.70703125 C63.90024659 55.69552984 63.90024659 55.69552984 66.5625 58.46484375 C67.8515625 59.83203125 67.8515625 59.83203125 67.8515625 61.83203125 C68.58375 61.90679687 69.3159375 61.9815625 70.0703125 62.05859375 C73.57420269 63.03299018 74.90656399 64.546804 77.3515625 67.20703125 C79.57959056 69.6154982 81.45175287 71.59548793 84.28125 73.26953125 C87.49623004 75.22392641 89.90908609 77.74848471 92.4765625 80.45703125 C96.11131874 84.41861505 96.11131874 84.41861505 100.8515625 86.83203125 C101.1815625 89.14203125 101.5115625 91.45203125 101.8515625 93.83203125 C101.02011719 94.23035156 100.18867187 94.62867188 99.33203125 95.0390625 C97.70201172 95.83376953 97.70201172 95.83376953 96.0390625 96.64453125 C94.96011719 97.16660156 93.88117188 97.68867188 92.76953125 98.2265625 C89.8921314 99.62179722 89.8921314 99.62179722 88.21484375 101.53125 C86.8515625 102.83203125 86.8515625 102.83203125 82.8515625 102.83203125 C82.61308594 103.40050781 82.37460937 103.96898437 82.12890625 104.5546875 C80.0984375 108.17475869 77.03518447 110.68115377 74.04296875 113.515625 C69.85270538 117.94490518 67.4333465 123.48592072 64.7265625 128.89453125 C64.36691406 129.60158203 64.00726562 130.30863281 63.63671875 131.03710938 C63.12044922 132.06674805 63.12044922 132.06674805 62.59375 133.1171875 C62.2829248 133.734729 61.97209961 134.35227051 61.65185547 134.98852539 C60.77693754 136.84496391 60.77693754 136.84496391 60.36767578 139.00170898 C60.1973584 139.60571533 60.02704102 140.20972168 59.8515625 140.83203125 C59.1915625 141.16203125 58.5315625 141.49203125 57.8515625 141.83203125 C56.69585546 145.29915236 56.52320957 148.37352685 56.2890625 152.01953125 C56.20527344 153.29183594 56.12148438 154.56414062 56.03515625 155.875 C55.97457031 156.85082031 55.91398438 157.82664063 55.8515625 158.83203125 C56.5115625 158.83203125 57.1715625 158.83203125 57.8515625 158.83203125 C58.0990625 159.90453125 58.3465625 160.97703125 58.6015625 162.08203125 C59.89283643 165.95585305 60.91833044 167.16545665 63.8515625 169.83203125 C64.85724492 171.49527526 65.85821049 173.16139378 66.8515625 174.83203125 C67.5115625 175.16203125 68.1715625 175.49203125 68.8515625 175.83203125 C68.8515625 177.15203125 68.8515625 178.47203125 68.8515625 179.83203125 C69.5115625 179.83203125 70.1715625 179.83203125 70.8515625 179.83203125 C72.31915459 186.22653964 73.13500581 192.50005644 73.7265625 199.01953125 C74.42566185 206.4607798 75.80721792 213.24307097 77.8984375 220.4296875 C79.22796331 225.17565874 80.08301436 229.9679305 80.8515625 234.83203125 C81.5115625 234.83203125 82.1715625 234.83203125 82.8515625 234.83203125 C82.8515625 236.48203125 82.8515625 238.13203125 82.8515625 239.83203125 C78.18029453 236.45898167 73.69066942 233.15102654 69.8515625 228.83203125 C69.8515625 228.17203125 69.8515625 227.51203125 69.8515625 226.83203125 C68.8615625 226.50203125 67.8715625 226.17203125 66.8515625 225.83203125 C66.8515625 225.17203125 66.8515625 224.51203125 66.8515625 223.83203125 C66.3359375 223.74953125 65.8203125 223.66703125 65.2890625 223.58203125 C60.16352362 222.00494236 56.68023237 220.11270286 53.7890625 215.64453125 C52.68086874 213.96995109 52.68086874 213.96995109 50.8515625 212.83203125 C47.26337739 212.3570609 43.7376432 212.26619121 40.12109375 212.16015625 C36.98306192 211.84522832 35.74174081 211.67672653 33.5390625 209.51953125 C31.8515625 206.83203125 31.8515625 206.83203125 31.44921875 204.84765625 C30.69595213 202.30722765 29.6683252 201.51649067 27.6015625 199.89453125 C24.4874963 197.36277011 21.65815145 194.70878493 18.8515625 191.83203125 C18.36429688 191.37828125 17.87703125 190.92453125 17.375 190.45703125 C13.34288979 186.63512584 10.01219658 182.49348817 6.6640625 178.08203125 C2.13709805 172.14374693 -2.77377522 167.20370761 -8.421875 162.33203125 C-12.13067381 158.93141343 -15.52829824 155.69244904 -17.1484375 150.83203125 C-19.59511102 148.11350511 -21.81882344 146.02979969 -24.9609375 144.14453125 C-25.6828125 143.71140625 -26.4046875 143.27828125 -27.1484375 142.83203125 C-27.1484375 142.17203125 -27.1484375 141.51203125 -27.1484375 140.83203125 C-27.8084375 140.83203125 -28.4684375 140.83203125 -29.1484375 140.83203125 C-30.76953125 139.0390625 -30.76953125 139.0390625 -32.5859375 136.64453125 C-33.18277344 135.86722656 -33.77960937 135.08992187 -34.39453125 134.2890625 C-36.1484375 131.83203125 -36.1484375 131.83203125 -37.44140625 129.4765625 C-39.84802633 125.74822887 -42.87558852 122.81561392 -46.0234375 119.70703125 C-46.63574219 119.08699219 -47.24804688 118.46695313 -47.87890625 117.828125 C-51.13338171 114.58758734 -54.18687919 112.17611121 -58.1484375 109.83203125 C-60.35926824 107.9154899 -62.4094397 105.85429331 -64.4609375 103.76953125 C-65.03199219 103.19605957 -65.60304688 102.62258789 -66.19140625 102.03173828 C-70.26311771 97.88517918 -73.93442374 93.55211372 -77.3671875 88.85546875 C-79.38956685 86.55811677 -81.46591631 85.27434572 -84.1484375 83.83203125 C-83.92093155 78.2581355 -82.6859543 75.86353821 -78.890625 71.859375 C-76.81576081 69.444903 -75.28073064 66.87590178 -73.6484375 64.14453125 C-70.96275262 59.81430805 -68.69521715 57.30310715 -64.1484375 54.83203125 C-60.46004183 52.11363574 -57.6305546 49.21850625 -54.7734375 45.64453125 C-53.99355469 44.67644531 -53.21367188 43.70835937 -52.41015625 42.7109375 C-50.43198451 40.19295379 -48.50631745 37.64400267 -46.5859375 35.08203125 C-43.72950981 31.37066348 -40.58941631 28.38550494 -36.99609375 25.39453125 C-34.94097273 23.7066435 -34.94097273 23.7066435 -32.4609375 21.08203125 C-30.1484375 18.83203125 -30.1484375 18.83203125 -27.7734375 17.45703125 C-25.28727521 15.9179784 -23.66586685 14.41932829 -21.6484375 12.33203125 C-18.99590597 9.58763715 -16.45957467 7.7490054 -13.1484375 5.83203125 C-12.0965625 4.50171875 -12.0965625 4.50171875 -11.0234375 3.14453125 C-7.2783955 0.13221486 -4.73790063 -0.17240339 0 0 Z " fill="#D3D3D3" transform="translate(590.1484375,97.16796875)"/>
<path d="M0 0 C1.91219341 1.74975671 3.67649866 3.48561754 5.4375 5.375 C9.09392472 9.29708459 9.09392472 9.29708459 13.42358398 12.43017578 C16.00539706 14.00328846 17.86165511 15.63220579 19.9765625 17.78125 C20.72083496 18.53212891 21.46510742 19.28300781 22.23193359 20.05664062 C23.02164551 20.86294922 23.81135742 21.66925781 24.625 22.5 C25.4495166 23.33208984 26.2740332 24.16417969 27.12353516 25.02148438 C30.6439731 28.5745745 34.15245064 32.13939229 37.66210938 35.703125 C40.22898827 38.30615712 42.80182691 40.90319214 45.375 43.5 C46.16471191 44.30630859 46.95442383 45.11261719 47.76806641 45.94335938 C48.51233887 46.69423828 49.25661133 47.44511719 50.0234375 48.21875 C50.67231934 48.87810547 51.32120117 49.53746094 51.98974609 50.21679688 C54.18140227 52.16091356 56.47075639 53.53250317 59 55 C62.37826197 57.97130783 65.51279594 61.18833398 68.6875 64.375 C69.55439453 65.22578125 70.42128906 66.0765625 71.31445312 66.953125 C72.14267578 67.78070313 72.97089844 68.60828125 73.82421875 69.4609375 C74.57791748 70.21165527 75.33161621 70.96237305 76.1081543 71.73583984 C78 74 78 74 78.92749023 76.46875 C80.38434863 79.90710826 82.5293013 81.59269077 85.3359375 84.0390625 C86.42717952 85.0075012 87.51663929 85.97795114 88.60449219 86.95019531 C89.44699524 87.70049011 89.44699524 87.70049011 90.30651855 88.46594238 C94.68979115 92.43657503 98.86026942 96.63575871 103.04931641 100.80908203 C104.65222433 102.4020556 106.26551917 103.98405517 107.87890625 105.56640625 C108.91210885 106.59309577 109.94468567 107.62041552 110.9765625 108.6484375 C111.89518066 109.55770996 112.81379883 110.46698242 113.76025391 111.40380859 C115.94151741 113.93221018 116.88257627 115.90114096 118 119 C118.680625 119.49886719 119.36125 119.99773437 120.0625 120.51171875 C122 122 122 122 122.75 124.26953125 C123.19540321 128.800117 123.36392756 131.28514228 121.25 135.4375 C119.5493007 137.37440754 117.81873708 139.18126292 116 141 C115.62875 141.6909375 115.2575 142.381875 114.875 143.09375 C107.53972733 154.46342264 95.6279872 165.63985388 82.16796875 168.62890625 C81.09482422 168.81259766 81.09482422 168.81259766 80 169 C80 169.66 80 170.32 80 171 C78.44033782 171.508783 76.87710759 172.00663469 75.3125 172.5 C74.00732422 172.91765625 74.00732422 172.91765625 72.67578125 173.34375 C70.00608323 173.99850805 67.73603316 174.11831495 65 174 C65 174.66 65 175.32 65 176 C62.3125 176.3125 62.3125 176.3125 59 176 C56.125 173.625 56.125 173.625 54 171 C54 170.34 54 169.68 54 169 C53.236875 168.855625 52.47375 168.71125 51.6875 168.5625 C49 168 49 168 46 167 C46 166.34 46 165.68 46 165 C40.09804653 164.00660831 34.19534892 163.0241337 28.28125 162.10546875 C-12.58162658 155.68176304 -12.58162658 155.68176304 -22 148 C-24.68092415 144.21934982 -26.35712882 140.31667159 -28 136 C-28.36351562 135.20722656 -28.72703125 134.41445313 -29.1015625 133.59765625 C-32.60393927 125.77746385 -34.23699129 117.34454174 -36 109 C-36.15388184 108.27844727 -36.30776367 107.55689453 -36.46630859 106.81347656 C-38.07163708 99.17384846 -39.42047518 91.84886999 -39 84 C-39.66 84 -40.32 84 -41 84 C-41.06316406 83.27554688 -41.12632812 82.55109375 -41.19140625 81.8046875 C-42.06656033 74.75877476 -42.06656033 74.75877476 -46.5625 69.5625 C-47.49255859 68.94568359 -47.49255859 68.94568359 -48.44140625 68.31640625 C-50.43869895 66.62946981 -50.64020022 65.56120636 -51 63 C-51.42204975 57.60168919 -51.08001787 53.07004355 -49 48 C-48.34 48 -47.68 48 -47 48 C-46.91363281 47.01128906 -46.82726562 46.02257812 -46.73828125 45.00390625 C-46.09493177 40.52524744 -44.27122013 36.91207325 -42.1875 32.9375 C-41.84396484 32.25623047 -41.50042969 31.57496094 -41.14648438 30.87304688 C-37.98552554 24.69939181 -34.5124728 19.22815757 -29.5625 14.3125 C-28.82128906 13.56613281 -28.08007812 12.81976563 -27.31640625 12.05078125 C-24.99743413 9.99772836 -22.68003282 8.53701398 -20 7 C-18.90778898 6.17833666 -17.82358511 5.34585493 -16.75 4.5 C-12.12642667 1.16131467 -5.64684444 -2.47182625 0 0 Z " fill="#85D4FD" transform="translate(707,194)"/>
<path d="M0 0 C3.125 1.6875 3.125 1.6875 5.125 4.6875 C7.23505463 6.0547409 7.23505463 6.0547409 9.625 7.25 C12.22118986 8.60288465 14.0443271 9.6068271 16.125 11.6875 C17.300625 12.0896875 17.300625 12.0896875 18.5 12.5 C21.75686635 13.9733443 22.98885171 15.86227161 25.125 18.6875 C26.176875 19.43 26.176875 19.43 27.25 20.1875 C29.125 21.6875 29.125 21.6875 29.97265625 24.04296875 C31.3268629 27.15075825 32.80528403 28.39865111 35.4375 30.5 C41.0916684 35.32960218 44.08860355 40.52424851 47.3125 47.125 C48.69814564 50.72173576 48.69814564 50.72173576 51.125 51.6875 C51.125 53.6675 51.125 55.6475 51.125 57.6875 C51.785 57.6875 52.445 57.6875 53.125 57.6875 C53.62 60.6575 53.62 60.6575 54.125 63.6875 C49.96541538 65.65782956 46.01592783 67.43854987 41.57421875 68.6796875 C31.50538914 71.49772561 25.6901433 75.3914338 19.125 83.6875 C18.44291762 85.01301343 17.77086962 86.34396933 17.125 87.6875 C15.80032254 88.3712045 14.46636367 89.03714186 13.125 89.6875 C10.03062655 92.90088781 9.19144025 96.42173901 8.125 100.6875 C7.465 100.6875 6.805 100.6875 6.125 100.6875 C5.691875 99.7284375 5.691875 99.7284375 5.25 98.75 C4.29676549 96.53543921 4.29676549 96.53543921 2.125 95.6875 C1.815625 94.90375 1.50625 94.12 1.1875 93.3125 C0.10286788 90.63282065 -0.8379319 89.64308538 -2.875 87.6875 C-3.32875 86.90375 -3.7825 86.12 -4.25 85.3125 C-5.82131891 82.55031498 -5.82131891 82.55031498 -8.375 80.1875 C-10.875 77.6875 -10.875 77.6875 -12.1875 75.375 C-15.84909471 69.54357139 -20.92122612 65.06666896 -26.875 61.6875 C-27.6175 60.90375 -28.36 60.12 -29.125 59.3125 C-32.67702374 55.92193189 -36.55106109 53.95043099 -40.875 51.6875 C-42.56490629 50.75434448 -44.25250934 49.81700265 -45.9375 48.875 C-46.69160156 48.45605469 -47.44570313 48.03710938 -48.22265625 47.60546875 C-48.76792969 47.30253906 -49.31320312 46.99960937 -49.875 46.6875 C-49.875 45.6975 -49.875 44.7075 -49.875 43.6875 C-48.24564759 42.30881719 -46.57750393 40.97475907 -44.875 39.6875 C-44.545 39.0275 -44.215 38.3675 -43.875 37.6875 C-43.111875 37.419375 -42.34875 37.15125 -41.5625 36.875 C-38.23576203 35.40504601 -37.06156503 33.5573666 -34.875 30.6875 C-34.09125 30.06875 -33.3075 29.45 -32.5 28.8125 C-28.23894193 25.36307203 -24.90854456 21.23781684 -21.875 16.6875 C-21.215 16.6875 -20.555 16.6875 -19.875 16.6875 C-20.184375 15.511875 -20.184375 15.511875 -20.5 14.3125 C-20.62375 13.44625 -20.7475 12.58 -20.875 11.6875 C-20.215 11.0275 -19.555 10.3675 -18.875 9.6875 C-18.37390945 8.3907217 -17.91958525 7.07539576 -17.5 5.75 C-16.58472484 3.26568172 -15.91103288 1.73020564 -14.1875 -0.3125 C-9.4046708 -2.38075047 -4.72403828 -1.86397335 0 0 Z " fill="#85D3FC" transform="translate(641.875,333.3125)"/>
<path d="M0 0 C0.99 0.33 1.98 0.66 3 1 C1.80100302 4.0831351 0.52299523 7.06279492 -1 10 C-0.34 10.66 0.32 11.32 1 12 C0.34 12.37125 -0.32 12.7425 -1 13.125 C-12.54349031 20.33968144 -19.2927825 27.59300543 -25 40 C-25.74457175 41.44031912 -26.49380844 42.87824738 -27.25 44.3125 C-28.9999897 47.79060453 -30.05659382 51.2263753 -31 55 C-31.66 55 -32.32 55 -33 55 C-34.22036085 60.94925916 -35.19833642 68.16595336 -33 74 C-31.40197654 75.36962035 -31.40197654 75.36962035 -29.5 76.5625 C-26.92251503 78.60235007 -26.09888787 79.59032167 -25.31640625 82.83203125 C-25.08799744 85.56942295 -24.96579714 88.25399935 -25 91 C-24.34 91 -23.68 91 -23 91 C-22.67 95.95 -22.34 100.9 -22 106 C-22.33 106 -22.66 106 -23 106 C-23 104.35 -23 102.7 -23 101 C-23.99 101 -24.98 101 -26 101 C-26 106.94 -26 112.88 -26 119 C-26.33 119 -26.66 119 -27 119 C-27.50278011 114.72948913 -28.00174923 110.4585415 -28.5 106.1875 C-28.71462891 104.36508789 -28.71462891 104.36508789 -28.93359375 102.50585938 C-29.06894531 101.34248047 -29.20429687 100.17910156 -29.34375 98.98046875 C-29.46943359 97.90692139 -29.59511719 96.83337402 -29.72460938 95.72729492 C-30 93 -30 93 -30 90 C-30.66 90 -31.32 90 -32 90 C-32 88.68 -32 87.36 -32 86 C-32.5775 85.79375 -33.155 85.5875 -33.75 85.375 C-36.81938843 83.49926262 -38.09314738 81.01405737 -40 78 C-40.5775 77.505 -41.155 77.01 -41.75 76.5 C-43.7015109 74.15818691 -43.19510247 71.926537 -43 69 C-43.66 69 -44.32 69 -45 69 C-45.054138 66.75026553 -45.09285491 64.50015617 -45.125 62.25 C-45.14820313 60.99703125 -45.17140625 59.7440625 -45.1953125 58.453125 C-45.01537302 55.27179508 -44.68998582 53.63478104 -43 51 C-42.34 51 -41.68 51 -41 51 C-40.90074219 49.97777344 -40.80148437 48.95554688 -40.69921875 47.90234375 C-38.50797925 35.67302388 -29.38654777 25.03056568 -20.63671875 16.6640625 C-18.91264128 15.08224778 -18.91264128 15.08224778 -18 13 C-17.21625 12.690625 -16.4325 12.38125 -15.625 12.0625 C-13.02003613 11.22186089 -13.02003613 11.22186089 -11.66015625 9.5703125 C-9.5578946 7.5818203 -7.51148788 6.82900193 -4.8125 5.8125 C-3.91144531 5.46832031 -3.01039063 5.12414062 -2.08203125 4.76953125 C-1.39496094 4.51558594 -0.70789063 4.26164063 0 4 C0 2.68 0 1.36 0 0 Z " fill="#151719" transform="translate(691,187)"/>
<path d="M0 0 C5.72313815 0.3012178 8.91891406 1.17900797 13.40625 4.73828125 C15.11334388 6.15131574 15.11334388 6.15131574 17.6875 7.5625 C20.18140274 9.11276387 21.92943807 10.92943807 24 13 C24.71994141 13.39251953 25.43988281 13.78503906 26.18164062 14.18945312 C30.00475503 16.64546633 32.93259017 19.72517558 36.09375 22.96875 C36.76289429 23.64546753 37.43203857 24.32218506 38.12145996 25.01940918 C40.97287675 27.90341549 43.81226431 30.79916161 46.65283203 33.69384766 C48.73319283 35.8104135 50.81955175 37.92093491 52.90625 40.03125 C53.86114319 41.01103821 53.86114319 41.01103821 54.83532715 42.01062012 C58.03592793 45.24622113 60.9822989 47.78437958 65 50 C67.85892709 53.91566518 69.61237769 58.10097847 69 63 C69.66 63 70.32 63 71 63 C71.495 67.455 71.495 67.455 72 72 C70.02 72.33 68.04 72.66 66 73 C65.74605469 72.22914063 65.49210938 71.45828125 65.23046875 70.6640625 C64.71419922 69.15972656 64.71419922 69.15972656 64.1875 67.625 C63.85105469 66.62726563 63.51460937 65.62953125 63.16796875 64.6015625 C62.1493425 61.7154291 62.1493425 61.7154291 59 60 C58.46375 58.96875 57.9275 57.9375 57.375 56.875 C55.10002246 52.6094171 51.75686351 49.98140899 48.0234375 46.9921875 C46 45 46 45 45.13671875 42.66357422 C43.80530177 39.54378057 42.17760042 37.78979665 39.7890625 35.390625 C38.95632813 34.55402344 38.12359375 33.71742188 37.265625 32.85546875 C36.39421875 31.99566406 35.5228125 31.13585937 34.625 30.25 C33.76132812 29.37472656 32.89765625 28.49945313 32.0078125 27.59765625 C30.75484375 26.35048828 30.75484375 26.35048828 29.4765625 25.078125 C28.71424316 24.31918945 27.95192383 23.56025391 27.16650391 22.77832031 C25.01628993 21.01337118 23.71800709 20.38729479 21 20 C21 19.34 21 18.68 21 18 C20.01 17.67 19.02 17.34 18 17 C17.54625 16.38125 17.0925 15.7625 16.625 15.125 C14.68486964 12.58790645 12.75793871 11.60189287 10 10 C8.21577044 8.85392554 6.44470709 7.68709101 4.6875 6.5 C3.80449219 5.9121875 2.92148437 5.324375 2.01171875 4.71875 C1.34785156 4.1515625 0.68398438 3.584375 0 3 C0 2.01 0 1.02 0 0 Z " fill="#E5E5E5" transform="translate(636,317)"/>
<path d="M0 0 C10.55808656 0.77904328 10.55808656 0.77904328 15 3 C15 3.66 15 4.32 15 5 C15.70125 5.0825 16.4025 5.165 17.125 5.25 C20.74089263 6.19327634 22.97164986 7.80296166 26 10 C26.6084375 10.4228125 27.216875 10.845625 27.84375 11.28125 C35.07017593 16.44298281 41.50846352 22.29656705 46 30 C46.70125 30.680625 47.4025 31.36125 48.125 32.0625 C50.15888363 34.16417975 50.3573606 35.24583113 51 38 C51.99 38.66 52.98 39.32 54 40 C56.60428359 44.91920235 57.3464451 48.34139667 57 54 C54.625 54.125 54.625 54.125 52 54 C51.34 53.34 50.68 52.68 50 52 C50 50.68 50 49.36 50 48 C49.401875 47.731875 48.80375 47.46375 48.1875 47.1875 C45.95762543 45.97699666 44.54509308 45.008621 43 43 C43 41.68 43 40.36 43 39 C42.01 38.67 41.02 38.34 40 38 C38.3515625 36.29296875 38.3515625 36.29296875 36.625 34.1875 C34.65096993 31.85417994 32.89427153 29.91541723 30.5 28 C27.50655454 25.60524363 25.19290821 22.86813732 22.69921875 19.96875 C19.00341011 15.22794492 19.00341011 15.22794492 13.9375 12.5 C12 12 12 12 10.0625 9.5625 C7.79544461 6.74585542 6.29216233 6.24568304 3 5 C2.67 4.01 2.34 3.02 2 2 C1.34 2 0.68 2 0 2 C0 1.34 0 0.68 0 0 Z " fill="#EAEAEA" transform="translate(585,386)"/>
<path d="M0 0 C4.97785842 2.90272141 8.95816624 5.84892749 13 10 C13.77730469 10.45375 14.55460938 10.9075 15.35546875 11.375 C18.18465462 13.11346576 20.28798048 15.02191849 22.625 17.375 C23.38039063 18.12523437 24.13578125 18.87546875 24.9140625 19.6484375 C26.97908562 21.97642237 28.43196217 24.32329318 30 27 C31.2684375 28.2375 31.2684375 28.2375 32.5625 29.5 C34.97781863 31.97724988 35.97543604 33.74002375 37 37 C35.68 36.67 34.36 36.34 33 36 C32.67 36.99 32.34 37.98 32 39 C31.608125 38.113125 31.21625 37.22625 30.8125 36.3125 C28.91896749 32.8519061 26.80738617 30.73720152 24 28 C23.31550781 26.83017578 23.31550781 26.83017578 22.6171875 25.63671875 C20.8829182 22.80910576 18.97560085 20.7095558 16.625 18.375 C15.87476563 17.61960937 15.12453125 16.86421875 14.3515625 16.0859375 C12.0166085 14.01473246 9.7049344 12.54133501 7 11 C5.80198622 10.16064315 4.61327427 9.30773664 3.4375 8.4375 C1.04290196 6.70167784 -1.28069568 5.1964939 -4 4 C-2.68 2.68 -1.36 1.36 0 0 Z " fill="#13181B" transform="translate(604,386)"/>
<path d="M0 0 C3.53095422 -0.31978453 5.38843645 -0.43304689 8.33349609 1.65234375 C9.41751709 2.78349609 9.41751709 2.78349609 10.5234375 3.9375 C11.31621094 4.74960937 12.10898437 5.56171875 12.92578125 6.3984375 C14.13814453 7.68621094 14.13814453 7.68621094 15.375 9 C16.20644531 9.85851562 17.03789063 10.71703125 17.89453125 11.6015625 C19.94382838 13.72152505 21.97784025 15.85418984 24 18 C23.67 18.99 23.34 19.98 23 21 C22.34 20.67 21.68 20.34 21 20 C21.66 21.32 22.32 22.64 23 24 C17.36241907 21.58630037 13.50987594 16.83810665 9.25 12.5625 C7.91775391 11.25442383 7.91775391 11.25442383 6.55859375 9.91992188 C5.71941406 9.08138672 4.88023437 8.24285156 4.015625 7.37890625 C3.24508789 6.6113501 2.47455078 5.84379395 1.68066406 5.05297852 C0 3 0 3 0 0 Z " fill="#EAEAEA" transform="translate(660,334)"/>
<path d="M0 0 C0.495 1.98 0.495 1.98 1 4 C-5.26736199 9.7435767 -5.26736199 9.7435767 -8.5 10.875 C-11.97590665 12.43915799 -13.7117528 14.96634442 -16.125 17.86328125 C-18.47677004 20.54331919 -21.08479681 22.75881125 -23.80078125 25.05859375 C-28.06924891 28.82667266 -32.0125143 32.9389746 -36 37 C-36.33 36.34 -36.66 35.68 -37 35 C-35.18994532 29.81117657 -32.09280753 27.06714682 -27.98828125 23.66796875 C-25.81134506 21.89747172 -25.81134506 21.89747172 -23.3125 19.25 C-21 17 -21 17 -18.625 15.625 C-15.48303111 13.67997164 -13.25554784 11.28177076 -10.69921875 8.63671875 C-8.66228701 6.67470864 -6.45217743 5.39177638 -4 4 C-2.63015802 2.70420353 -1.2848951 1.38007251 0 0 Z " fill="#CACACA" transform="translate(581,99)"/>
<path d="M0 0 C4.278551 0.47539456 6.09647107 3.02565329 9 6 C10.6502694 7.0268343 12.31243867 8.03567924 14 9 C14 9.33 14 9.66 14 10 C12.35 10 10.7 10 9 10 C9 10.99 9 11.98 9 13 C8.01 13 7.02 13 6 13 C6 12.34 6 11.68 6 11 C5.01 10.67 4.02 10.34 3 10 C1.97971135 8.68212715 0.98028616 7.34789347 0 6 C-0.99 5.34 -1.98 4.68 -3 4 C-1.68 4 -0.36 4 1 4 C0.67 2.68 0.34 1.36 0 0 Z " fill="#E1E1E1" transform="translate(651,324)"/>
<path d="M0 0 C5.00186537 4.21548963 9.8209128 8.55404296 14.5 13.125 C15.14453125 13.73214844 15.7890625 14.33929688 16.453125 14.96484375 C17.05640625 15.55652344 17.6596875 16.14820313 18.28125 16.7578125 C18.82845703 17.2852002 19.37566406 17.81258789 19.93945312 18.35595703 C21 20 21 20 20.66992188 22.20263672 C20.44884766 22.7957666 20.22777344 23.38889648 20 24 C20 23.34 20 22.68 20 22 C19.360625 21.731875 18.72125 21.46375 18.0625 21.1875 C16 20 16 20 15 17 C14.34 16.67 13.68 16.34 13 16 C11 15 11 15 10 12 C9.34 12 8.68 12 8 12 C8 11.34 8 10.68 8 10 C7.01 9.67 6.02 9.34 5 9 C5 8.34 5 7.68 5 7 C4.34 7 3.68 7 3 7 C3 6.34 3 5.68 3 5 C2.01 4.67 1.02 4.34 0 4 C0 2.68 0 1.36 0 0 Z " fill="#7CC6E3" transform="translate(764,248)"/>
<path d="M0 0 C0.8353125 1.0828125 0.8353125 1.0828125 1.6875 2.1875 C3.94426304 5.04815328 3.94426304 5.04815328 6.625 7.5 C8.97485987 9.97353671 9.98828861 11.78091832 11 15 C9.68 14.67 8.36 14.34 7 14 C6.67 14.99 6.34 15.98 6 17 C5.4121875 15.6696875 5.4121875 15.6696875 4.8125 14.3125 C2.93363045 10.87870392 0.86704545 8.63458231 -2 6 C-1.34 4.02 -0.68 2.04 0 0 Z " fill="#181F23" transform="translate(630,408)"/>
<path d="M0 0 C1.65 0 3.3 0 5 0 C6.06775224 1.96466413 7.06553465 3.96855359 8 6 C7.67 6.66 7.34 7.32 7 8 C8.32 8.66 9.64 9.32 11 10 C11 10.66 11 11.32 11 12 C11.639375 12.268125 12.27875 12.53625 12.9375 12.8125 C15 14 15 14 16 17 C16.66 17 17.32 17 18 17 C17.67 17.99 17.34 18.98 17 20 C14.15456244 17.24136787 11.32585243 14.46618001 8.5 11.6875 C7.68917969 10.90181641 6.87835937 10.11613281 6.04296875 9.30664062 C5.27597656 8.54931641 4.50898437 7.79199219 3.71875 7.01171875 C3.00654297 6.31522217 2.29433594 5.61872559 1.56054688 4.90112305 C0 3 0 3 0 0 Z " fill="#EFEFEF" transform="translate(660,334)"/>
<path d="M0 0 C0.33 1.32 0.66 2.64 1 4 C-5.2462658 9.72424358 -5.2462658 9.72424358 -8.5625 10.9375 C-12.37016345 12.59725073 -14.48940852 15.77332917 -17 19 C-18.32 18.67 -19.64 18.34 -21 18 C-20.319375 17.484375 -19.63875 16.96875 -18.9375 16.4375 C-16.61722446 14.51216498 -14.58820617 12.59424686 -12.5 10.4375 C-9.85363364 7.73946922 -7.29726645 5.8714215 -4 4 C-2.63015802 2.70420353 -1.2848951 1.38007251 0 0 Z " fill="#C1C1C1" transform="translate(581,99)"/>
<path d="M0 0 C0.66 0.33 1.32 0.66 2 1 C0.59473786 4.27655508 -1.02917473 6.15432686 -3.75 8.4375 C-4.45640625 9.035625 -5.1628125 9.63375 -5.890625 10.25 C-6.58671875 10.8275 -7.2828125 11.405 -8 12 C-8.61359375 12.515625 -9.2271875 13.03125 -9.859375 13.5625 C-11.23422594 14.71475603 -12.61626963 15.85842244 -14 17 C-14 12.68381834 -11.86729652 11.07210341 -9 8 C-8.34 8 -7.68 8 -7 8 C-7 7.34 -7 6.68 -7 6 C-6.34 6 -5.68 6 -5 6 C-5 5.34 -5 4.68 -5 4 C-4.34 4 -3.68 4 -3 4 C-3 3.34 -3 2.68 -3 2 C-2.01 1.34 -1.02 0.68 0 0 Z " fill="#8A7852" transform="translate(127,818)"/>
<path d="M0 0 C0.66 0.66 1.32 1.32 2 2 C-3.28 7.28 -8.56 12.56 -14 18 C-14.66 17.34 -15.32 16.68 -16 16 C-10.72 10.72 -5.44 5.44 0 0 Z " fill="#83D0EF" transform="translate(819,337)"/>
<path d="M0 0 C1.1055189 0.93590504 2.20935453 1.87379858 3.3125 2.8125 C3.92738281 3.33457031 4.54226563 3.85664063 5.17578125 4.39453125 C6.85424679 5.87172469 8.43882034 7.40039131 10 9 C10.33 7.68 10.66 6.36 11 5 C11.66 5 12.32 5 13 5 C13 6.65 13 8.3 13 10 C11.35 10.66 9.7 11.32 8 12 C7.52949219 11.51789063 7.05898438 11.03578125 6.57421875 10.5390625 C5.95160156 9.90742188 5.32898438 9.27578125 4.6875 8.625 C4.07261719 7.99851562 3.45773437 7.37203125 2.82421875 6.7265625 C0.91187472 4.81913393 0.91187472 4.81913393 -2 3 C-1.34 3 -0.68 3 0 3 C0 2.01 0 1.02 0 0 Z " fill="#303030" transform="translate(662,327)"/>
<path d="M0 0 C4.52615993 3.67832017 8.39424999 7.41086363 12 12 C10.375 12.8125 10.375 12.8125 8 13 C2.47638436 9.20928339 2.47638436 9.20928339 1.1875 5.9375 C1.125625 5.298125 1.06375 4.65875 1 4 C0.67767778 2.6639621 0.34568223 1.33018521 0 0 Z " fill="#E3E3E3" transform="translate(665,334)"/>
<path d="M0 0 C0.66 0 1.32 0 2 0 C2.33 2.97 2.66 5.94 3 9 C1.02 9.33 -0.96 9.66 -3 10 C-3.66 7.03 -4.32 4.06 -5 1 C-3.33333333 1 -1.66666667 1 0 1 C0 0.67 0 0.34 0 0 Z " fill="#DEDEDE" transform="translate(705,380)"/>
<path d="M0 0 C1.32 0.66 2.64 1.32 4 2 C2.68 2 1.36 2 0 2 C-0.2371875 2.56589844 -0.474375 3.13179687 -0.71875 3.71484375 C-2.28098524 6.50114746 -4.19737443 8.35332514 -6.5 10.5625 C-9.02809153 12.9961985 -11.04672934 15.07009401 -13 18 C-13.40625 15.92578125 -13.40625 15.92578125 -13 13 C-11.09840772 10.4546395 -8.81912527 8.34992761 -6.5 6.1875 C-5.56994141 5.2912793 -5.56994141 5.2912793 -4.62109375 4.37695312 C-3.09174512 2.90642559 -1.54728534 1.4516427 0 0 Z " fill="#C5C5C5" transform="translate(673,198)"/>
<path d="M0 0 C0.66 0 1.32 0 2 0 C3.4783226 2.95664519 3.06032783 5.74229737 3 9 C3.66 9 4.32 9 5 9 C6.13764351 13.26616316 7 16.56486311 7 21 C6.34 21 5.68 21 5 21 C4.34822031 18.81426438 3.70385326 16.6263177 3.0625 14.4375 C2.70285156 13.21933594 2.34320312 12.00117188 1.97265625 10.74609375 C1.03323041 7.12798381 0.45256009 3.70146514 0 0 Z " fill="#484848" transform="translate(666,311)"/>
<path d="M0 0 C0.66 0 1.32 0 2 0 C2.3125 2.1875 2.3125 2.1875 2 5 C-0.3125 7.5 -0.3125 7.5 -3 10 C-3.53625 10.928125 -4.0725 11.85625 -4.625 12.8125 C-5.07875 13.534375 -5.5325 14.25625 -6 15 C-6.99 15 -7.98 15 -9 15 C-8.55914063 14.62101562 -8.11828125 14.24203125 -7.6640625 13.8515625 C-5.59022439 11.54405249 -4.59879912 9.22052065 -3.375 6.375 C-1.08333333 1.08333333 -1.08333333 1.08333333 0 0 Z " fill="#B5B5B5" transform="translate(837,334)"/>
<path d="M0 0 C2.475 0.495 2.475 0.495 5 1 C5 1.66 5 2.32 5 3 C5.66 3 6.32 3 7 3 C7 3.66 7 4.32 7 5 C7.66 5 8.32 5 9 5 C9 5.66 9 6.32 9 7 C9.99 7.33 10.98 7.66 12 8 C11.67 9.32 11.34 10.64 11 12 C9.16364422 10.19047409 7.33083792 8.37759362 5.5 6.5625 C4.97535156 6.04623047 4.45070313 5.52996094 3.91015625 4.99804688 C2.58775448 3.68423213 1.29164432 2.34406495 0 1 C0 0.67 0 0.34 0 0 Z " fill="#C3C3C3" transform="translate(760,439)"/>
<path d="M0 0 C2.475 0.495 2.475 0.495 5 1 C5 1.66 5 2.32 5 3 C5.66 3 6.32 3 7 3 C7 3.66 7 4.32 7 5 C7.66 5 8.32 5 9 5 C9 5.66 9 6.32 9 7 C9.99 7.33 10.98 7.66 12 8 C11.67 9.32 11.34 10.64 11 12 C9.16364422 10.19047409 7.33083792 8.37759362 5.5 6.5625 C4.97535156 6.04623047 4.45070313 5.52996094 3.91015625 4.99804688 C2.58775448 3.68423213 1.29164432 2.34406495 0 1 C0 0.67 0 0.34 0 0 Z " fill="#BFBFBF" transform="translate(748,427)"/>
<path d="M0 0 C4.52615993 3.67832017 8.39424999 7.41086363 12 12 C8 12 8 12 6.25 10.625 C5 9 5 9 5 7 C4.34 7 3.68 7 3 7 C3 6.34 3 5.68 3 5 C2.01 4.67 1.02 4.34 0 4 C0 2.68 0 1.36 0 0 Z " fill="#77BED6" transform="translate(800,286)"/>
<path d="M0 0 C0.66 0.99 1.32 1.98 2 3 C0.71451591 4.33929505 -0.57858155 5.67128643 -1.875 7 C-2.59429688 7.7425 -3.31359375 8.485 -4.0546875 9.25 C-6 11 -6 11 -8 11 C-8 12.65 -8 14.3 -8 16 C-8.33 16 -8.66 16 -9 16 C-9.34559158 13.09703073 -9.51874316 10.87462509 -7.9921875 8.30078125 C-5.80520769 5.59652179 -4.33330702 4.11110234 -1 3 C-0.67 2.01 -0.34 1.02 0 0 Z " fill="#213039" transform="translate(660,417)"/>
<path d="M0 0 C1.65 0.33 3.3 0.66 5 1 C5.33 2.65 5.66 4.3 6 6 C3.625 6.125 3.625 6.125 1 6 C0.34 5.34 -0.32 4.68 -1 4 C-0.625 1.875 -0.625 1.875 0 0 Z " fill="#EFEFEF" transform="translate(646,322)"/>
<path d="M0 0 C3.39859703 1.46966358 5.64963709 3.38037514 8.25 6 C8.95640625 6.70125 9.6628125 7.4025 10.390625 8.125 C12 10 12 10 12 12 C10.0625 11.1875 10.0625 11.1875 8 10 C7.67 9.01 7.34 8.02 7 7 C6.34 7 5.68 7 5 7 C5 6.34 5 5.68 5 5 C4.01 4.67 3.02 4.34 2 4 C2 3.34 2 2.68 2 2 C1.34 2 0.68 2 0 2 C0 1.34 0 0.68 0 0 Z " fill="#B29965" transform="translate(607,413)"/>
<path d="M0 0 C0 0.99 0 1.98 0 3 C-2.30786395 5.01938095 -3.9999203 6.01663719 -7.11328125 5.96484375 C-9.08607721 5.71605421 -11.04526175 5.36444272 -13 5 C-10.14415227 3.09610151 -8.0688238 2.30537823 -4.8125 1.375 C-3.91144531 1.11460937 -3.01039063 0.85421875 -2.08203125 0.5859375 C-1.39496094 0.39257812 -0.70789063 0.19921875 0 0 Z " fill="#A8A8A8" transform="translate(799,372)"/>
<path d="M0 0 C-1.65091778 4.29238623 -4.73754566 6.8793915 -8 10 C-8.99 9.67 -9.98 9.34 -11 9 C-9.54782324 7.49403892 -8.08807139 5.99537896 -6.625 4.5 C-5.40683594 3.24703125 -5.40683594 3.24703125 -4.1640625 1.96875 C-2 0 -2 0 0 0 Z " fill="#B19865" transform="translate(612,459)"/>
<path d="M0 0 C1.32 0.33 2.64 0.66 4 1 C4 1.66 4 2.32 4 3 C5.98 3.66 7.96 4.32 10 5 C10 5.99 10 6.98 10 8 C6.66666667 6.33333333 3.33333333 4.66666667 0 3 C0 2.01 0 1.02 0 0 Z " fill="#7DC6DE" transform="translate(592,377)"/>
<path d="M0 0 C0.99 0.33 1.98 0.66 3 1 C1.38405168 3.04119788 -0.2856382 5.04072937 -2 7 C-2.66 7 -3.32 7 -4 7 C-4 7.66 -4 8.32 -4 9 C-4.66 8.67 -5.32 8.34 -6 8 C-4.26440562 4.942048 -2.61527381 2.36620011 0 0 Z " fill="#C7C7C7" transform="translate(818,359)"/>
<path d="M0 0 C3.51547883 0.29295657 4.72523271 0.69290714 7.125 3.375 C7.74375 4.24125 8.3625 5.1075 9 6 C9.98230498 7.0173873 10.97469597 8.02596117 12 9 C10.35 8.67 8.7 8.34 7 8 C7 7.34 7 6.68 7 6 C6.34 6 5.68 6 5 6 C5 5.34 5 4.68 5 4 C4.01 3.67 3.02 3.34 2 3 C2 2.34 2 1.68 2 1 C1.34 0.67 0.68 0.34 0 0 Z " fill="#7DC8E1" transform="translate(658,346)"/>
<path d="M0 0 C0.99 0.33 1.98 0.66 3 1 C0.03 3.97 -2.94 6.94 -6 10 C-6.33 9.01 -6.66 8.02 -7 7 C-4.69 4.69 -2.38 2.38 0 0 Z " fill="#7AC2E1" transform="translate(668,406)"/>
<path d="M0 0 C2.37948772 0.17625835 3.70225849 0.69719773 5.37890625 2.40234375 C6.62115486 3.90649092 7.81376056 5.45129851 9 7 C8.01 7.33 7.02 7.66 6 8 C5.67 7.01 5.34 6.02 5 5 C4.34 5 3.68 5 3 5 C3 4.34 3 3.68 3 3 C2.01 2.67 1.02 2.34 0 2 C0 1.34 0 0.68 0 0 Z " fill="#7CC6E4" transform="translate(709,199)"/>
<path d="M0 0 C0 3.77910478 -0.99703962 4.46106101 -3.5 7.1875 C-4.1496875 7.90292969 -4.799375 8.61835937 -5.46875 9.35546875 C-5.9740625 9.89816406 -6.479375 10.44085938 -7 11 C-8.32 10.67 -9.64 10.34 -11 10 C-10.29875 9.46375 -9.5975 8.9275 -8.875 8.375 C-5.69584371 5.74874046 -2.880978 2.94797749 0 0 Z " fill="#ABABAB" transform="translate(571,107)"/>
<path d="M0 0 C0.66 0.99 1.32 1.98 2 3 C-0.97 5.97 -3.94 8.94 -7 12 C-7.66 11.67 -8.32 11.34 -9 11 C-8.27683594 10.31164062 -8.27683594 10.31164062 -7.5390625 9.609375 C-6.59160156 8.68898438 -6.59160156 8.68898438 -5.625 7.75 C-4.99851562 7.14671875 -4.37203125 6.5434375 -3.7265625 5.921875 C-2.02689839 4.0299412 -1.01540134 2.31798691 0 0 Z " fill="#4D4D4D" transform="translate(929,462)"/>
<path d="M0 0 C1.98 1.65 3.96 3.3 6 5 C5.67 6.32 5.34 7.64 5 9 C3.76302083 7.50260417 2.52604167 6.00520833 1.2890625 4.5078125 C0.24749008 3.28948839 -0.86660097 2.13339903 -2 1 C-1.34 0.67 -0.68 0.34 0 0 Z " fill="#C4C4C4" transform="translate(511,181)"/>
<path d="M0 0 C2.31 1.65 4.62 3.3 7 5 C6.67 6.32 6.34 7.64 6 9 C5.34 9 4.68 9 4 9 C3.71125 8.360625 3.4225 7.72125 3.125 7.0625 C2.17176549 4.84793921 2.17176549 4.84793921 0 4 C0 2.68 0 1.36 0 0 Z " fill="#7BC4DE" transform="translate(644,425)"/>
<path d="M0 0 C0.33 0.99 0.66 1.98 1 3 C1.66 3 2.32 3 3 3 C3 4.65 3 6.3 3 8 C1.02 6.35 -0.96 4.7 -3 3 C-2.01 2.01 -1.02 1.02 0 0 Z " fill="#CBCBCB" transform="translate(670,329)"/>
<path d="M0 0 C1.14926266 0.95421808 2.29430541 1.91352045 3.4375 2.875 C4.07558594 3.40867187 4.71367188 3.94234375 5.37109375 4.4921875 C7 6 7 6 8 8 C6.35 7.67 4.7 7.34 3 7 C3 6.34 3 5.68 3 5 C2.01 4.67 1.02 4.34 0 4 C0 2.68 0 1.36 0 0 Z " fill="#75BAD2" transform="translate(812,298)"/>
<path d="M0 0 C1.98 0.99 1.98 0.99 4 2 C4 2.66 4 3.32 4 4 C5.65 4.33 7.3 4.66 9 5 C9 5.66 9 6.32 9 7 C5.85262818 6.30058404 2.97411124 5.23921302 0 4 C0 2.68 0 1.36 0 0 Z " fill="#969696" transform="translate(639,141)"/>
<path d="M0 0 C2.64 0.33 5.28 0.66 8 1 C6.35 2.32 4.7 3.64 3 5 C1.5 3.625 1.5 3.625 0 2 C0 1.34 0 0.68 0 0 Z " fill="#CDCDCD" transform="translate(699,360)"/>
<path d="M0 0 C3.35595828 0.59927826 5.37801226 1.84622436 8 4 C7.01 4.33 6.02 4.66 5 5 C4.34 5.66 3.68 6.32 3 7 C2.01 6.34 1.02 5.68 0 5 C0.66 5 1.32 5 2 5 C2 3.68 2 2.36 2 1 C1.34 0.67 0.68 0.34 0 0 Z " fill="#D7D7D7" transform="translate(641,318)"/>
<path d="M0 0 C4.41889613 1.35021826 6.34345343 3.26115668 9 7 C7.35 6.67 5.7 6.34 4 6 C4 5.34 4 4.68 4 4 C3.34 4 2.68 4 2 4 C2 3.34 2 2.68 2 2 C1.34 2 0.68 2 0 2 C0 1.34 0 0.68 0 0 Z " fill="#7BC5DC" transform="translate(791,279)"/>
<path d="M0 0 C4.41889613 1.35021826 6.34345343 3.26115668 9 7 C5 7 5 7 3.25 5.625 C2 4 2 4 2 2 C1.34 2 0.68 2 0 2 C0 1.34 0 0.68 0 0 Z " fill="#7DC7E0" transform="translate(745,233)"/>
<path d="M0 0 C0.99 0.33 1.98 0.66 3 1 C1.625 3 1.625 3 0 5 C-0.66 5 -1.32 5 -2 5 C-2.66 6.32 -3.32 7.64 -4 9 C-4.66 8.67 -5.32 8.34 -6 8 C-4.02 5.36 -2.04 2.72 0 0 Z " fill="#9E9E9E" transform="translate(521,155)"/>
<path d="M0 0 C1.98 0.66 3.96 1.32 6 2 C6 3.32 6 4.64 6 6 C5.01 6 4.02 6 3 6 C3 5.34 3 4.68 3 4 C2.01 3.67 1.02 3.34 0 3 C0 2.01 0 1.02 0 0 Z " fill="#D2D2D2" transform="translate(654,331)"/>
<path d="M0 0 C0.33 0.99 0.66 1.98 1 3 C0.38125 3.598125 -0.2375 4.19625 -0.875 4.8125 C-3.13676954 7.00811144 -3.13676954 7.00811144 -5 10 C-5.3125 7.8125 -5.3125 7.8125 -5 5 C-2.5 2.1875 -2.5 2.1875 0 0 Z " fill="#CBCBCB" transform="translate(883,507)"/>
<path d="M0 0 C1.65 1.65 3.3 3.3 5 5 C4.34 5.66 3.68 6.32 3 7 C2.566875 6.54625 2.13375 6.0925 1.6875 5.625 C-0.10798342 3.79975666 -0.10798342 3.79975666 -3 2 C-2.01 2 -1.02 2 0 2 C0 1.34 0 0.68 0 0 Z " fill="#242424" transform="translate(699,362)"/>
<path d="M0 0 C2.9375 0.75 2.9375 0.75 6 2 C6.875 4.125 6.875 4.125 7 6 C4.0625 5.25 4.0625 5.25 1 4 C0.125 1.875 0.125 1.875 0 0 Z " fill="#7BBEDB" transform="translate(752,357)"/>
<path d="M0 0 C0.33 0 0.66 0 1 0 C2.13764351 4.26616316 3 7.56486311 3 12 C2.34 12 1.68 12 1 12 C0.03929566 9.11788698 -0.10581883 7.30149956 -0.0625 4.3125 C-0.05347656 3.50425781 -0.04445313 2.69601562 -0.03515625 1.86328125 C-0.02355469 1.24839844 -0.01195312 0.63351562 0 0 Z " fill="#383838" transform="translate(670,320)"/>
<path d="M0 0 C2.5363613 1.01454452 3.79351461 1.6853556 5.3125 4 C5.539375 4.66 5.76625 5.32 6 6 C5.67 6.66 5.34 7.32 5 8 C0 2.25 0 2.25 0 0 Z " fill="#C5C5C5" transform="translate(612,289)"/>
<path d="M0 0 C4.8 3.44615385 4.8 3.44615385 5.8125 6.25 C5.874375 6.8275 5.93625 7.405 6 8 C5.01 8 4.02 8 3 8 C0.89229241 5.11165997 0 3.61537605 0 0 Z " fill="#D8D8D8" transform="translate(623,407)"/>
<path d="M0 0 C0.66 0 1.32 0 2 0 C2.66 1.65 3.32 3.3 4 5 C3.34 5 2.68 5 2 5 C2 6.98 2 8.96 2 11 C1.34 10.67 0.68 10.34 0 10 C0 6.7 0 3.4 0 0 Z " fill="#1B2A33" transform="translate(829,316)"/>
<path d="M0 0 C0.33 0.99 0.66 1.98 1 3 C0.67 3.66 0.34 4.32 0 5 C-0.22467831 6.53668865 -0.40796805 8.07968054 -0.5625 9.625 C-0.64628906 10.44226563 -0.73007812 11.25953125 -0.81640625 12.1015625 C-0.87699219 12.72804687 -0.93757812 13.35453125 -1 14 C-1.33 14 -1.66 14 -2 14 C-2.33 10.37 -2.66 6.74 -3 3 C-2.01 2.67 -1.02 2.34 0 2 C0 1.34 0 0.68 0 0 Z " fill="#2D4856" transform="translate(657,243)"/>
<path d="M0 0 C1.32 0 2.64 0 4 0 C4.33 0.99 4.66 1.98 5 3 C6.49985609 4.66710346 6.49985609 4.66710346 8 6 C6.35 5.67 4.7 5.34 3 5 C3 4.34 3 3.68 3 3 C2.01 2.67 1.02 2.34 0 2 C0 1.34 0 0.68 0 0 Z " fill="#BFBFBF" transform="translate(627,131)"/>
<path d="M0 0 C0 0.99 0 1.98 0 3 C-1.98 3.33 -3.96 3.66 -6 4 C-6 3.01 -6 2.02 -6 1 C-3 0 -3 0 0 0 Z " fill="#D8D8D8" transform="translate(708,386)"/>
<path d="M0 0 C2.31 1.98 4.62 3.96 7 6 C6.01 6.33 5.02 6.66 4 7 C2 5.1875 2 5.1875 0 3 C0 2.01 0 1.02 0 0 Z " fill="#CDCDCD" transform="translate(879,382)"/>
<path d="M0 0 C4.75 0.75 4.75 0.75 7 3 C7 3.99 7 4.98 7 6 C3.31197956 4.77065985 2.27643027 3.06140622 0 0 Z " fill="#B7B7B7" transform="translate(660,325)"/>
<path d="M0 0 C5.875 2.75 5.875 2.75 7 5 C5.02 5 3.04 5 1 5 C0.67 3.35 0.34 1.7 0 0 Z " fill="#BFBFBF" transform="translate(670,168)"/>
<path d="M0 0 C2.3125 -0.25 2.3125 -0.25 5 0 C6.8125 2 6.8125 2 8 4 C7.01 4.33 6.02 4.66 5 5 C4.67 4.34 4.34 3.68 4 3 C1.98330173 1.86649466 1.98330173 1.86649466 0 1 C0 0.67 0 0.34 0 0 Z " fill="#DFDFDF" transform="translate(604,394)"/>
<path d="M0 0 C2.5 1.8125 2.5 1.8125 5 4 C5 4.99 5 5.98 5 7 C2 6 2 6 0 3 C0 2.01 0 1.02 0 0 Z " fill="#C7C7C7" transform="translate(568,240)"/>
<path d="" fill="#000000" transform="translate(0,0)"/>
<path d="" fill="#000000" transform="translate(0,0)"/>
<path d="" fill="#000000" transform="translate(0,0)"/>
<path d="" fill="#000000" transform="translate(0,0)"/>
<path d="" fill="#000000" transform="translate(0,0)"/>
<path d="" fill="#000000" transform="translate(0,0)"/>
<path d="" fill="#000000" transform="translate(0,0)"/>
<path d="" fill="#000000" transform="translate(0,0)"/>
<path d="" fill="#000000" transform="translate(0,0)"/>
<path d="" fill="#000000" transform="translate(0,0)"/>
<path d="" fill="#000000" transform="translate(0,0)"/>
<path d="" fill="#000000" transform="translate(0,0)"/>
<path d="" fill="#000000" transform="translate(0,0)"/>
<path d="" fill="#000000" transform="translate(0,0)"/>
<path d="" fill="#000000" transform="translate(0,0)"/>
</svg>
